<svg width="99" height="256" viewBox="0 0 99 256" fill="none" xmlns="http://www.w3.org/2000/svg">
<path d="M44.077 31.9284L45.5636 43.8776L53.5295 45.2767L45.5636 59.2123L31.3938 44.4844L37.4641 44.2737L35.5635 29.8689L44.077 31.9284Z" fill="url(#paint0_linear_5_1198)"/>
<path d="M38.7942 6.48755C38.7942 6.48755 49.6677 5.89472 52.5678 19.8247C55.4679 33.7546 46.4723 38.1207 40.3844 37.5419C34.2964 36.9632 29.7709 30.1078 28.6451 25.9833C27.5194 21.8588 28.9707 7.56081 38.7942 6.48755Z" fill="url(#paint1_linear_5_1198)"/>
<path d="M45.8816 24.57C45.5863 24.5026 46.6136 21.8307 48.3855 21.235C50.5233 20.5158 51.1669 22.6623 51.1897 23.109C51.2124 23.5558 47.3052 24.8875 45.8816 24.57Z" fill="url(#paint2_linear_5_1198)"/>
<path d="M48.332 24.4564C49.1154 24.4438 49.7408 23.7141 49.7289 22.8267C49.717 21.9392 49.0724 21.23 48.2891 21.2425C47.5057 21.2551 46.8803 21.9848 46.8922 22.8722C46.9041 23.7597 47.5487 24.4689 48.332 24.4564Z" fill="url(#paint3_linear_5_1198)"/>
<path d="M48.3301 24.3607C49.0675 24.3486 49.6563 23.6622 49.6453 22.8275C49.6343 21.9928 49.0276 21.3258 48.2903 21.3379C47.553 21.3499 46.9642 22.0363 46.9752 22.8711C46.9861 23.7058 47.5928 24.3727 48.3301 24.3607Z" fill="url(#paint4_linear_5_1198)"/>
<path style="mix-blend-mode:multiply" d="M49.1729 22.7719C49.2133 23.3113 48.8574 23.7861 48.3829 23.8311C47.9059 23.8761 47.4869 23.4743 47.449 22.9348C47.4086 22.3954 47.7645 21.9206 48.2391 21.8756C48.7161 21.8307 49.1351 22.2324 49.1729 22.7719Z" fill="url(#paint5_linear_5_1198)"/>
<path d="M45.9195 24.0446C45.9195 24.0446 46.548 20.3725 48.5066 19.8668C50.4653 19.361 51.0761 22.623 51.0761 22.623C51.0761 22.623 50.4804 20.9316 48.6101 21.221C46.7398 21.5076 45.917 24.0446 45.917 24.0446H45.9195Z" fill="url(#paint6_linear_5_1198)"/>
<path d="M45.8741 24.1936L46.2274 24.615C46.2274 24.615 45.8286 24.6965 45.7782 24.5729C45.7277 24.4492 45.8766 24.1936 45.8766 24.1936H45.8741Z" fill="#D66C7C"/>
<path d="M46.495 24.6318C46.495 24.6318 48.07 24.7527 49.3926 24.3256C50.7151 23.8985 51.1215 23.2355 51.1215 23.2355C51.1215 23.2355 49.0745 24.3453 46.495 24.6318Z" fill="#D66C7C"/>
<path d="M49.2815 22.4544C49.2033 22.5471 49.5995 22.5331 49.8873 22.3729C50.1422 22.2296 50.2558 22.0245 50.228 21.9936C50.2003 21.9627 49.5945 22.0835 49.2815 22.4544Z" fill="white"/>
<path d="M49.0619 22.5612C48.9458 22.5275 48.8196 22.6061 48.8196 22.6736C48.8196 22.741 48.966 22.814 49.0266 22.7775C49.0897 22.7438 49.125 22.578 49.0594 22.5584L49.0619 22.5612Z" fill="white"/>
<g style="mix-blend-mode:multiply" opacity="0.6">
<path d="M45.8741 24.1935C45.8741 24.1935 46.9468 22.2634 48.4814 21.7801C50.016 21.2969 50.8439 22.2268 50.8439 22.2268C50.8439 22.2268 50.5334 20.9569 48.5016 21.3165C46.4698 21.6761 45.8741 24.1935 45.8741 24.1935Z" fill="#C978B1"/>
</g>
<path d="M45.8741 24.1936C45.8741 24.1936 46.6389 21.7071 48.7388 21.3362C50.6142 21.0047 51.1417 22.8393 51.1417 22.8393C51.1417 22.8393 51.2174 21.1817 49.8948 20.9176C48.6354 20.6675 46.5707 21.6059 45.8741 24.1936Z" fill="#401432"/>
<path d="M40.0259 25.0477C40.3465 24.8904 38.5771 22.1341 36.4292 21.9487C33.8345 21.7268 33.5846 24.3481 33.6578 24.8623C33.7335 25.3764 38.4762 25.8063 40.0234 25.0477H40.0259Z" fill="url(#paint7_linear_5_1198)"/>
<path d="M37.2146 25.5982C38.1078 25.3951 38.6812 24.4095 38.4954 23.397C38.3095 22.3845 37.4347 21.7285 36.5415 21.9317C35.6483 22.1348 35.0749 23.1204 35.2608 24.1329C35.4467 25.1454 36.3214 25.8014 37.2146 25.5982Z" fill="url(#paint8_linear_5_1198)"/>
<path d="M37.1948 25.4932C38.0362 25.302 38.5764 24.3742 38.4016 23.421C38.2267 22.4677 37.403 21.85 36.5616 22.0412C35.7203 22.2324 35.18 23.1602 35.3549 24.1134C35.5297 25.0667 36.3535 25.6844 37.1948 25.4932Z" fill="url(#paint9_linear_5_1198)"/>
<path style="mix-blend-mode:multiply" d="M35.879 23.9154C35.9547 24.5419 36.4645 24.9831 37.0173 24.9016C37.57 24.8201 37.9562 24.2469 37.8805 23.6204C37.8048 22.9939 37.2949 22.5528 36.7422 22.6342C36.1894 22.7157 35.8032 23.2889 35.879 23.9154Z" fill="url(#paint10_linear_5_1198)"/>
<path d="M39.8669 24.4605C39.8669 24.4605 38.3273 20.4568 35.985 20.4259C33.6427 20.395 33.678 24.2779 33.678 24.2779C33.678 24.2779 33.9758 22.1903 36.1692 21.9965C38.3626 21.8026 39.8669 24.4605 39.8669 24.4605Z" fill="url(#paint11_linear_5_1198)"/>
<path d="M39.9527 24.6178L39.6473 25.1938C39.6473 25.1938 40.1193 25.1741 40.1496 25.0224C40.1799 24.8679 39.9527 24.6178 39.9527 24.6178Z" fill="#D66C7C"/>
<path d="M39.3419 25.2865C39.3419 25.2865 37.5751 25.8625 35.9749 25.7445C34.3746 25.6265 33.7638 24.9831 33.7638 24.9831C33.7638 24.9831 36.3434 25.677 39.3419 25.2865Z" fill="#D66C7C"/>
<path d="M35.6846 23.5839C35.7956 23.6682 35.3388 23.7609 34.9779 23.6597C34.6548 23.5698 34.4806 23.3675 34.5033 23.3226C34.5286 23.2776 35.2454 23.2495 35.6846 23.5839Z" fill="white"/>
<path d="M35.9572 23.6457C36.0808 23.5755 36.2424 23.6289 36.2575 23.7075C36.2727 23.7862 36.1238 23.907 36.0455 23.8845C35.9673 23.862 35.889 23.685 35.9572 23.6457Z" fill="white"/>
<g style="mix-blend-mode:multiply" opacity="0.6">
<path d="M39.9527 24.6178C39.9527 24.6178 38.2995 22.7185 36.4443 22.5949C34.5892 22.4713 33.8572 23.7609 33.8572 23.7609C33.8572 23.7609 33.9254 22.2297 36.3181 22.0752C38.7109 21.9206 39.9527 24.6178 39.9527 24.6178Z" fill="#C978B1"/>
</g>
<path d="M39.9527 24.6178C39.9527 24.6178 38.5241 22.0021 36.0506 22.1623C33.8421 22.3055 33.6553 24.542 33.6553 24.542C33.6553 24.542 33.1959 22.6764 34.6447 22.0077C36.0228 21.3728 38.5822 21.8672 39.9527 24.6178Z" fill="#401432"/>
<path d="M46.1391 27.8095C46.1391 27.8095 46.1038 27.9781 45.5384 28.0624C44.973 28.1467 44.4935 28.7535 43.5318 28.8575C42.5702 28.9615 42.0426 28.4613 41.4747 28.4951C40.9068 28.5316 40.7958 28.3771 40.7958 28.3771C40.6771 27.9753 40.6948 27.5679 40.7705 27.2139C40.7705 27.2139 40.7705 27.2027 40.7705 27.1998C40.9043 26.5789 41.2047 26.1182 41.2047 26.1182C42.4919 25.25 43.9382 25.0955 45.3491 25.677C45.3491 25.677 45.5889 25.9271 45.806 26.3233V26.3289C46.0155 26.7138 46.2048 27.2364 46.1366 27.8095H46.1391Z" fill="url(#paint12_linear_5_1198)"/>
<path d="M44.8872 28.3377C44.8872 28.3377 45.286 27.8769 45.8413 27.9978L44.8872 28.3377Z" fill="#812852"/>
<path d="M41.182 28.4979C41.182 28.4979 41.7171 28.2563 42.3077 28.6861L41.182 28.4979Z" fill="#812852"/>
<g style="mix-blend-mode:multiply" opacity="0.6">
<path d="M46.1391 27.8095C46.1391 27.8095 46.1038 27.9781 45.5384 28.0624C44.973 28.1467 44.4935 28.7535 43.5318 28.8575C42.5702 28.9615 42.0426 28.4614 41.4747 28.4951C40.9068 28.5316 40.7958 28.3771 40.7958 28.3771C40.6771 27.9753 40.6948 27.5679 40.7705 27.2139C40.7579 27.3178 40.6948 27.9809 40.9346 28.113C41.1946 28.2591 42.5777 28.009 43.4536 27.9163C44.3294 27.8236 45.8161 27.669 45.9599 27.3909C46.0987 27.1268 45.8337 26.3963 45.8085 26.3289C46.018 26.7138 46.2073 27.2364 46.1391 27.8095Z" fill="#C978B1"/>
</g>
<path style="mix-blend-mode:multiply" opacity="0.6" d="M45.3516 25.6799C45.3516 25.6799 45.132 26.7868 45.233 27.5342C45.233 27.5342 44.9377 26.8262 45.1421 25.5984L45.3491 25.677L45.3516 25.6799Z" fill="url(#paint13_linear_5_1198)"/>
<path style="mix-blend-mode:multiply" opacity="0.6" d="M41.2552 26.1153C41.2552 26.1153 41.659 27.1549 41.6868 27.9107C41.6868 27.9107 41.8559 27.1521 41.4445 25.9917L41.2552 26.1125V26.1153Z" fill="url(#paint14_linear_5_1198)"/>
<g style="mix-blend-mode:multiply" opacity="0.6">
<path d="M40.9346 28.1129C40.9346 28.1129 40.816 28.29 40.7958 28.377C40.7756 28.4641 42.1613 29.6638 43.5899 29.5121C45.0185 29.3604 46.1265 27.9753 46.1391 27.8095C46.1518 27.6437 45.8994 27.4611 45.8994 27.4611C45.8994 27.4611 44.7989 27.773 43.4511 27.9163C42.1032 28.0596 40.9321 28.1129 40.9321 28.1129H40.9346Z" fill="#C978B1"/>
</g>
<path d="M44.5591 27.4302C44.3446 27.3235 44.6701 26.9133 44.7686 26.9189C44.867 26.9245 44.9402 27.1577 44.8998 27.3179C44.8595 27.478 44.65 27.4752 44.5591 27.4302Z" fill="#FBC9B8"/>
<path d="M45.1371 18.7318C45.1371 18.7318 45.705 18.3918 47.1286 18.2007C47.5501 18.1446 48.0473 18.1024 48.6278 18.0856C51.1619 18.0125 52.9792 18.3553 52.9792 18.3553C52.9616 18.3075 52.1716 17.1528 51.2402 16.692C51.2478 16.7032 51.374 16.9027 51.3765 17.1275C51.3765 17.1275 50.2886 16.3577 48.8474 16.1385C48.5799 16.0964 48.2972 16.0767 48.0094 16.0823C46.1745 16.1245 45.4299 17.6978 45.4299 17.6978C45.4299 17.6978 45.445 17.3045 45.6192 17.0572C45.6192 17.0572 45.0589 17.5433 45.1346 18.7318H45.1371Z" fill="url(#paint15_linear_5_1198)"/>
<path style="mix-blend-mode:multiply" opacity="0.6" d="M47.1311 18.2008C47.5526 18.1446 48.0499 18.1024 48.6304 18.0856C51.1645 18.0125 52.9818 18.3553 52.9818 18.3553C52.9641 18.3075 52.1741 17.1528 51.2427 16.692C51.2503 16.7032 51.3765 16.9027 51.379 17.1275C51.379 17.1275 50.2912 16.3577 48.85 16.1385C49.3699 16.3661 50.5032 16.8859 51.2024 17.7765C51.2024 17.7765 49.799 17.3747 47.1286 18.2036L47.1311 18.2008Z" fill="url(#paint16_linear_5_1198)"/>
<path d="M39.3949 19.274C39.3949 19.274 38.7816 19.0464 37.353 19.1251C36.9289 19.1476 36.4317 19.2009 35.8587 19.2937C33.3499 19.6982 31.6108 20.3782 31.6108 20.3782C31.6209 20.3276 32.2241 19.0408 33.0722 18.4115C33.0672 18.4255 32.9713 18.6446 33.0041 18.8666C33.0041 18.8666 33.9581 17.9029 35.3464 17.4169C35.6038 17.3269 35.8789 17.2511 36.1641 17.2033C37.9789 16.8999 38.9532 18.3103 38.9532 18.3103C38.9532 18.3103 38.88 17.9254 38.668 17.7147C38.668 17.7147 39.2939 18.0883 39.3999 19.274H39.3949Z" fill="url(#paint17_linear_5_1198)"/>
<path style="mix-blend-mode:multiply" opacity="0.6" d="M37.3505 19.1251C36.9265 19.1475 36.4292 19.2009 35.8563 19.2936C33.3474 19.6982 31.6084 20.3781 31.6084 20.3781C31.6184 20.3276 32.2217 19.0408 33.0698 18.4114C33.0647 18.4255 32.9688 18.6446 33.0016 18.8666C33.0016 18.8666 33.9557 17.9029 35.3439 17.4168C34.8643 17.7399 33.827 18.4648 33.2717 19.4735C33.2717 19.4735 34.5943 18.8132 37.353 19.1279L37.3505 19.1251Z" fill="url(#paint18_linear_5_1198)"/>
<path d="M27.4513 27.0538C27.5548 27.36 27.6582 27.6325 27.7643 27.8742L27.7693 27.8854C28.524 29.6105 29.3493 29.9083 29.7708 30.6725C30.1343 31.3328 31.3787 32.5746 32.2141 30.9198C32.2166 30.9198 32.2166 30.9141 32.2166 30.9141C32.2166 30.9141 30.8966 24.9943 30.3489 23.9716C30.3489 23.9716 29.5513 22.432 28.4861 22.3617C27.1181 22.269 26.5502 24.3509 27.4513 27.051V27.0538Z" fill="url(#paint19_linear_5_1198)"/>
<path style="mix-blend-mode:multiply" opacity="0.6" d="M31.3433 27.2532C31.3433 27.2532 28.8092 24.2582 27.7869 24.2076C26.7647 24.1571 27.6532 26.9133 27.9838 27.8264C28.3145 28.7395 28.688 29.248 28.688 29.248C28.688 29.248 28.2842 28.172 28.11 27.2785C27.8601 25.9917 28.0772 24.8117 28.5088 24.8482C28.9404 24.8847 29.7229 26.4216 29.786 26.6014C29.8491 26.7812 29.5815 27.1661 29.7405 28.172C29.897 29.1778 30.4826 30.2005 30.7148 30.1471C30.947 30.0937 30.735 29.293 30.6038 28.3518C30.4725 27.4077 31.159 27.478 31.5376 28.0427L31.3408 27.2588L31.3433 27.2532Z" fill="url(#paint20_linear_5_1198)"/>
<path style="mix-blend-mode:multiply" opacity="0.6" d="M31.5402 28.0399C31.5402 28.0399 30.8839 27.2335 30.6214 27.6943C30.3589 28.1551 30.7426 29.248 30.518 29.425C30.2908 29.602 29.8365 28.7451 29.786 27.8994C29.7355 27.0537 29.9299 26.253 30.3716 26.3204L31.3458 27.256L31.5427 28.0399H31.5402Z" fill="url(#paint21_linear_5_1198)"/>
<path style="mix-blend-mode:multiply" d="M27.7718 27.8854C28.5265 29.6104 29.3518 29.9083 29.7734 30.6725C30.1368 31.3327 31.3812 32.5746 32.2166 30.9197C32.1636 30.9871 31.6361 31.6334 30.995 31.4901C30.316 31.3383 30.0207 30.7062 29.6774 30.237C29.3367 29.765 28.5896 29.529 27.7743 27.8854H27.7718Z" fill="url(#paint22_linear_5_1198)"/>
<path d="M48.8954 137.965L51.8232 250.042L59.1025 244.803L68.6812 132.781L48.8954 137.965Z" fill="url(#paint23_linear_5_1198)"/>
<path opacity="0.2" d="M51.3941 233.629L48.8954 137.965L68.6812 132.781L60.0667 233.514C57.1767 233.41 54.2438 233.575 51.3941 233.629Z" fill="#201829"/>
<path d="M59.3448 243.999L51.2604 246.25L50.3947 253.001L77.8282 254.125C77.8282 254.125 76.1952 250.911 59.3474 243.999H59.3448Z" fill="url(#paint24_linear_5_1198)"/>
<path d="M77.8257 254.122L50.3921 252.998L50.1019 255.249L77.5355 255.569L77.8257 254.122Z" fill="#2B2238"/>
<path d="M16.8453 151.985C16.391 152.069 15.9316 152.153 15.4722 152.238L23.3876 244.803L30.6669 250.045L33.2918 149.524C27.8021 150.265 22.3098 150.99 16.8453 151.988V151.985Z" fill="url(#paint25_linear_5_1198)"/>
<path opacity="0.2" d="M16.8453 151.985C16.391 152.069 15.9316 152.154 15.4722 152.238L22.4234 233.514C25.3134 233.41 28.2463 233.575 31.0959 233.629L33.2918 149.521C27.8021 150.263 22.3098 150.988 16.8453 151.985Z" fill="url(#paint26_linear_5_1198)"/>
<path d="M23.1453 243.999L31.2297 246.249L32.0955 253.001L4.66188 254.125C4.66188 254.125 6.29492 250.911 23.1428 243.999H23.1453Z" fill="url(#paint27_linear_5_1198)"/>
<path d="M4.66444 254.122L32.098 252.998L32.3858 255.249L4.95218 255.569L4.66444 254.122Z" fill="#2B2238"/>
<path d="M60.2257 74.769L57.2928 107.121L32.4539 102.522L30.046 76.1963L60.2257 74.769Z" fill="#010101"/>
<path d="M59.4256 83.9704C59.4256 83.9704 52.4593 94.9025 35.5433 91.6631C35.5433 91.6631 35.2354 91.9777 34.7129 92.5565C30.3867 91.4018 30.624 85.156 30.624 85.156C10.3889 134.641 10.9189 228.344 10.9189 228.344L29.8213 228.687L34.3015 229.066L34.357 228.771L34.9905 228.782L36.0102 220.036L46.0432 167.019L47.9362 228.091L71.9397 230.181C71.9397 230.181 82.3588 137.403 59.4256 83.9732V83.9704Z" fill="url(#paint28_linear_5_1198)"/>
<g style="mix-blend-mode:multiply">
<path d="M89.5119 43.3578L90.3297 20.7546C89.2848 18.0153 88.9592 12.6742 89.3832 11.025C90.1026 8.21822 91.7836 10.4912 91.7836 10.4912C92.8638 8.35308 93.823 10.4912 93.823 10.4912C94.4237 8.08617 95.9835 10.3563 95.9835 10.3563C97.4247 7.6844 99.2244 10.8901 98.7448 15.835C98.5656 17.6725 97.8059 18.7879 96.925 19.4678C97.8286 25.7613 100.105 45.7909 98.3586 50.7273C95.5393 58.6925 67.1743 58.3722 67.1743 58.3722L66.6266 45.6813L89.5145 43.3606L89.5119 43.3578Z" fill="url(#paint29_linear_5_1198)"/>
<path d="M89.7971 15.3855C90.0218 15.068 90.2439 14.7337 90.466 14.3993C93.1945 13.5565 95.9103 12.6433 98.7246 12.5731C98.8432 13.5171 98.8634 14.6213 98.7448 15.835C98.5656 17.6725 97.8059 18.7879 96.925 19.4678C96.9855 19.8921 97.0562 20.4147 97.1294 20.9822C94.7215 20.1365 92.2606 19.3892 89.7643 18.7121C89.575 17.8018 89.4387 16.8128 89.3453 15.8407C89.5044 15.7311 89.6583 15.5822 89.7971 15.3855Z" fill="url(#paint30_linear_5_1198)"/>
<path d="M90.1909 13.1659C90.1909 13.1659 87.7653 12.3539 86.998 15.1944C86.2307 18.0321 89.4236 21.4121 92.1066 20.4652C94.7897 19.5184 90.1909 13.1659 90.1909 13.1659Z" fill="url(#paint31_linear_5_1198)"/>
<path d="M88.1364 13.4722C88.1364 13.4722 92.2026 11.1711 95.6024 13.1744C97.8286 14.4864 92.4701 16.0682 90.7361 15.6243C89.0021 15.1804 88.1364 13.4722 88.1364 13.4722Z" fill="url(#paint32_linear_5_1198)"/>
<path d="M95.986 10.3563C95.986 10.3563 95.9381 8.797 97.137 8.797C98.3359 8.797 100.004 15.3265 98.1365 15.9221C96.2687 16.5149 95.9835 10.3563 95.9835 10.3563H95.986Z" fill="url(#paint33_linear_5_1198)"/>
<path d="M89.5851 10.8761C89.5851 10.8761 89.5372 9.31677 90.7361 9.31677C91.935 9.31677 93.6034 15.8463 91.7356 16.4419C89.8678 17.0347 89.5851 10.8761 89.5851 10.8761Z" fill="url(#paint34_linear_5_1198)"/>
<path d="M93.7851 10.7188C93.7851 10.7188 93.7371 9.09483 94.936 9.09483C96.1349 9.09483 97.8033 15.8968 95.9355 16.515C94.0678 17.1331 93.7851 10.7188 93.7851 10.7188Z" fill="url(#paint35_linear_5_1198)"/>
<path d="M91.7179 10.9407C91.7179 10.9407 91.6699 9.31677 92.8689 9.31677C94.0678 9.31677 95.7362 16.1188 93.8684 16.7369C92.0006 17.355 91.7154 10.9407 91.7154 10.9407H91.7179Z" fill="url(#paint36_linear_5_1198)"/>
</g>
<path d="M25.2932 59.3331L13.0265 75.6596L26.8253 87.3756C26.8253 87.3756 30.1949 82.9646 31.4594 83.6782C34.7331 85.5297 39.352 94.1355 32.2772 86.4625C32.2772 86.4625 40.6822 99.6451 30.5407 87.6594C30.5407 87.6594 36.9164 100.232 29.1045 90.0981C29.1045 90.0981 33.6402 101.011 28.105 91.7502C28.105 91.7502 27.2519 94.5906 24.7733 93.3376C22.2972 92.0817 2.64266 81.7368 0.219603 77.7865C-2.20346 73.8362 16.2244 52.208 16.2244 52.208L25.2907 59.3331H25.2932Z" fill="url(#paint37_linear_5_1198)"/>
<path opacity="0.2" d="M59.5619 82.0852L60.2257 74.7662L30.046 76.1963L31.7901 83.2989C32.0046 84.1727 32.7063 84.7852 33.519 84.8105C39.0189 84.9818 48.8979 84.8133 59.5619 82.0852Z" fill="#201829"/>
<path d="M12.4939 53.6943L22.3603 65.8654L25.5608 61.4122L30.6669 82.9702C30.9319 83.9114 32.623 83.9592 33.5089 83.9732C37.7644 84.0294 50.4047 84.7599 59.5644 82.0908C61.2353 67.5399 62.361 60.8222 62.361 60.8222L69.8271 59.3387L69.2945 44.4985L51.437 44.9171C51.437 44.9171 51.697 50.4352 43.4283 50.733C35.1621 51.0308 32.7618 44.5996 32.7618 44.5996C32.7618 44.5996 22.4512 42.8184 12.4964 53.7027L12.4939 53.6943Z" fill="#010101"/>
<path d="M36.2399 225.416L10.1718 218.367L9.04865 229.372L35.2303 232.8L36.2399 225.416Z" fill="url(#paint38_linear_5_1198)"/>
<path opacity="0.2" d="M55.16 228.229C64.3499 189.535 64.2591 137.516 63.6356 113.853C58.4614 118.66 51.5658 122.327 44.4935 125.524C44.4935 125.524 46.9317 147.81 46.0962 168.699L47.9362 228.085L55.0514 228.706C55.0893 228.543 55.1196 228.392 55.16 228.229Z" fill="#201829"/>
<path d="M74.4889 219.44L45.8766 225.366L46.3966 231.825L73.7115 232.098L74.4889 219.44Z" fill="url(#paint39_linear_5_1198)"/>
<path d="M43.6504 0.7279C43.7413 0.789711 47.9665 3.86059 52.4366 5.63625C56.9066 7.41191 57.9818 9.88154 58.3983 12.236L56.5255 10.9998C56.5255 10.9998 57.2776 9.67925 55.6597 8.02721C54.0418 6.37517 49.0367 5.75987 45.5334 2.99524L43.6504 0.72509V0.7279Z" fill="#E8A723"/>
<path d="M35.6064 7.41189C35.6064 7.41189 33.3701 4.97879 33.3701 3.59085C33.3701 2.20292 34.6094 1.759 35.4776 1.70843C35.9724 1.68033 34.4125 0.522782 32.4867 1.50614C30.5608 2.48949 32.8501 7.00731 35.3742 7.84738L35.6089 7.41189H35.6064Z" fill="#E8A723"/>
<path d="M25.5456 13.1603C22.4184 16.8493 22.5219 19.4004 23.5113 20.5271C24.5007 21.6537 25.9773 22.1763 27.8905 22.4067C27.8905 22.4067 26.0504 21.7717 24.7026 20.5271C23.3548 19.2824 24.2584 17.0797 25.3942 16.5009L25.5456 13.1575V13.1603Z" fill="#E8A723"/>
<path d="M35.0486 7.64229C35.0486 7.64229 35.301 6.48474 35.6821 5.75144C36.0632 5.01813 39.6372 0.0395405 41.8912 0.000206211C44.1451 -0.039128 48.0649 5.55757 54.4785 9.20723C60.8945 12.8541 61.4069 15.4305 59.7234 18.7514C59.3675 19.4538 58.6052 16.2115 58.6052 16.2115C58.6052 16.2115 58.8425 19.3555 56.8359 21.3447C56.8359 21.3447 55.9702 23.2552 55.3795 23.5165C54.7889 23.7778 54.6274 23.5165 54.6274 23.5165L53.9661 24.2385C53.9661 24.2385 54.3068 25.8934 54.1857 26.7082C54.1857 26.7082 53.4386 25.6124 53.0928 23.8845C53.0928 23.8845 52.3103 23.626 52.0983 22.8113C52.0176 22.5022 52.7798 22.0386 52.8151 21.1115C52.8505 20.1871 52.747 19.7713 52.747 19.7713C52.747 19.7713 51.7475 21.3053 50.7909 21.1115C49.8343 20.9204 49.2058 19.7713 49.2058 19.7713C49.2058 19.7713 49.8696 20.572 50.5284 20.263C51.1871 19.9539 51.8106 17.5236 51.5329 16.1329C51.2553 14.7421 47.7999 10.9997 47.7999 10.9997C47.7999 10.9997 47.0048 12.9299 46.0104 12.9299C45.7075 12.9299 46.7171 11.3481 46.4546 10.5755C46.1921 9.80286 44.0315 7.15623 43.557 7.33324C43.3501 7.40909 40.5055 7.37257 38.7715 7.95134C37.0375 8.53012 35.9623 8.60879 35.9623 8.60879C35.9623 8.60879 32.7845 10.5671 31.5679 12.7108C30.3514 14.8545 30.7022 19.3976 30.7022 19.3976C30.7022 19.3976 30.9193 20.5158 31.7926 20.8446C32.3302 21.0468 31.414 21.9459 30.7022 21.7717C30.7022 21.7717 30.6568 25.9524 30.099 26.5227C29.9223 26.7025 29.319 23.2748 29.319 23.2748C29.319 23.2748 27.8551 22.8113 26.5805 22.0751C25.3058 21.339 24.3694 18.7907 24.3947 16.4756C24.4199 14.1605 25.9293 12.7108 25.9293 12.7108C25.9293 12.7108 25.591 12.3062 25.591 11.3931C25.591 10.48 26.8253 7.5861 28.2892 7.2658C29.7532 6.94832 33.6073 7.90358 35.0486 7.64229Z" fill="#E8A723"/>
<g style="mix-blend-mode:multiply" opacity="0.6">
<path d="M24.3947 16.4728C24.2887 18.7851 25.3059 21.3362 26.5805 22.0723C27.8551 22.8085 29.319 23.272 29.319 23.272C29.319 23.272 29.9223 26.7026 30.099 26.5199C30.6568 25.9496 30.7022 21.7689 30.7022 21.7689C31.4165 21.9431 32.3302 21.044 31.7926 20.8417C30.9193 20.5102 30.7022 19.3948 30.7022 19.3948C30.7022 19.3948 30.3539 14.8489 31.568 12.708C32.7845 10.5643 35.9623 8.60599 35.9623 8.60599C35.9623 8.60599 37.0375 8.52732 38.7715 7.94854C40.5055 7.36977 43.3501 7.4091 43.5571 7.33043C44.0316 7.15343 46.1921 9.80006 46.4546 10.5727C46.7146 11.3453 45.7075 12.9271 46.0104 12.9271C47.0049 12.9271 47.7999 10.9969 47.7999 10.9969C47.7999 10.9969 49.5466 12.8906 50.6571 14.4836C50.382 14.0622 49.7712 13.0114 49.6526 11.8848C49.4986 10.4238 52.9918 13.6211 53.6153 15.63C54.2387 17.6388 52.1943 19.7994 52.1009 18.7486C52.01 17.7147 51.5506 16.1806 51.5355 16.1329C51.8106 17.5236 51.1872 19.9539 50.5284 20.263C49.8949 20.5608 49.2538 19.8275 49.2083 19.7741C49.2462 19.8415 49.8646 20.926 50.7934 21.1115C51.75 21.3025 52.7495 19.7713 52.7495 19.7713C52.7495 19.7713 52.853 20.1871 52.8177 21.1115C52.7824 22.0386 52.0201 22.5022 52.1009 22.8113C52.3129 23.6232 53.0953 23.8817 53.0953 23.8817C53.4411 25.6096 54.1882 26.7054 54.1882 26.7054C54.3119 25.8906 53.9686 24.2357 53.9686 24.2357L54.6299 23.5137C54.6299 23.5137 54.794 23.775 55.3821 23.5137C55.9727 23.2524 56.8385 21.3419 56.8385 21.3419C58.8425 19.3527 58.6078 16.2087 58.6078 16.2087C58.6078 16.2087 59.37 19.451 59.7259 18.7486C60.256 14.5848 59.6805 14.4724 53.3351 10.8059C49.9883 8.8729 48.4259 7.60296 47.6965 6.83595C49.6778 9.50506 52.6839 10.9014 53.9661 12.0786C55.3947 13.3907 55.4856 16.3239 55.4856 16.3239C55.4856 16.3239 54.8621 14.5089 52.0983 11.9241C49.3345 9.33648 47.5349 7.83335 47.5349 7.83335C47.5349 7.83335 47.5097 10.1485 46.9544 10.0333C46.3991 9.91807 44.236 5.01252 42.1335 4.70628C40.5383 4.47589 38.2288 4.90014 40.1219 3.33239C41.9795 1.79554 43.923 2.39679 44.4733 2.866C42.9614 1.50054 41.4318 2.1945 40.1193 2.81542C38.7337 3.47006 36.3409 6.05769 36.0077 5.22886C35.8462 5.46487 35.7351 5.64749 35.6821 5.74863C35.301 6.48194 35.0486 7.63949 35.0486 7.63949C34.1929 7.79402 32.4867 7.52149 30.9344 7.33886C30.9344 7.33886 35.094 8.2576 34.463 8.48798C33.832 8.71837 32.5978 8.83637 30.8637 8.64251C29.1297 8.44865 28.158 8.95157 27.3276 10.494C26.525 11.9803 27.0752 13.253 27.1181 13.343C26.6739 12.1433 28.1302 10.4547 30.3009 10.3002C32.4085 10.1513 33.7739 9.63992 33.8572 9.6062C31.0985 10.9576 29.1096 11.6825 28.2943 13.1519C26.9717 15.5344 27.5018 17.2174 27.5018 17.2174C26.0126 16.2762 25.9343 12.7024 25.9343 12.7024C25.5128 13.3514 24.5057 14.1802 24.3997 16.4672L24.3947 16.4728Z" fill="#E8A723"/>
</g>
<g style="mix-blend-mode:multiply">
<path d="M58.6053 16.2144C58.6053 16.2144 57.9364 13.579 54.5466 12.2388C54.5466 12.2388 59.5215 12.531 59.5215 18.7542C59.5215 18.7542 59.1 18.7261 58.6053 16.2144Z" fill="#E8A723"/>
</g>
<g style="mix-blend-mode:multiply">
<path d="M53.1635 14.6775C54.2538 16.9673 53.3957 18.4424 52.7445 19.7741C52.7445 19.7741 54.0873 19.3976 54.5466 17.6023C55.006 15.807 53.1609 14.6775 53.1609 14.6775H53.1635Z" fill="#E8A723"/>
</g>
<g style="mix-blend-mode:multiply">
<path d="M33.8547 9.61463C33.8547 9.61463 26.6461 7.94854 27.1004 12.4579C27.1004 12.4579 27.6153 10.9155 29.3468 10.4828C30.7426 10.1344 31.0657 10.4828 33.8547 9.61463Z" fill="#E8A723"/>
</g>
<g style="mix-blend-mode:multiply">
<path d="M54.6274 23.5193C55.796 20.5777 57.4265 17.2483 55.1372 13.1603C55.1372 13.1603 57.0353 14.5146 57.5124 17.1612C57.7648 18.5632 57.4593 19.3808 56.8359 21.3475C56.7829 21.5132 56.2276 22.5135 55.7127 23.244C55.3064 23.8199 54.6274 23.5193 54.6274 23.5193Z" fill="#E8A723"/>
</g>
<g style="mix-blend-mode:multiply">
<path d="M29.3191 23.2748C27.9233 21.2576 28.4357 19.2375 28.4357 19.2375C28.4357 19.2375 28.052 19.406 27.3958 20.1899C26.2196 21.5919 26.5805 22.0751 26.5805 22.0751C26.5805 22.0751 27.4639 22.5359 28.5265 22.9911L29.3191 23.2776V23.2748Z" fill="#E8A723"/>
</g>
<g style="mix-blend-mode:multiply">
<path d="M30.6997 21.7717C29.4957 21.5413 28.9884 19.5999 28.9884 19.5999C28.9884 19.5999 29.0969 23.2158 30.465 25.2921L30.6997 21.7717Z" fill="#E8A723"/>
</g>
<g style="mix-blend-mode:multiply" opacity="0.4">
<path d="M46.023 33.3107C46.0154 33.3332 45.9473 33.513 45.8135 33.7462C45.811 33.7518 45.8059 33.7574 45.8034 33.763C45.6696 33.9934 45.4854 34.3671 45.2229 34.6059C45.2178 34.6087 45.2153 34.6143 45.2103 34.6172C44.9503 34.8504 44.6222 35.0386 44.2234 35.092C44.2082 35.092 44.1931 35.0948 44.178 35.0976C44.1628 35.0976 44.1477 35.1032 44.1325 35.1032C43.7337 35.1566 43.3753 35.0639 43.0724 34.9065C43.0674 34.9065 43.0623 34.9009 43.0573 34.8981C42.7519 34.738 42.4894 34.4233 42.3127 34.2351C42.3077 34.2294 42.3051 34.2266 42.3001 34.221C42.1209 34.03 42.0174 33.8726 42.0022 33.853C42.0325 33.9063 43.0144 35.7129 44.2082 35.5499C44.2158 35.5499 44.2209 35.5499 44.2284 35.5471C44.236 35.5471 44.2411 35.5471 44.2486 35.5471C45.44 35.3842 46.0028 33.3697 46.0205 33.3079L46.023 33.3107Z" fill="#CC77B1"/>
</g>
<path d="M45.6671 32.2936L45.5535 32.3217L45.3945 32.361L43.9003 32.5633C42.9235 32.6954 42.4061 32.7656 42.4061 32.7656H42.2445L42.1284 32.7712L41.4318 32.7853C41.4369 32.8021 41.6236 33.3219 42.0048 33.8529C42.0931 33.9766 42.1915 34.1002 42.3026 34.221C42.3076 34.2266 42.3102 34.2294 42.3152 34.235C42.5222 34.457 42.7771 34.7548 43.0598 34.8981C43.0648 34.8981 43.0699 34.9037 43.0749 34.9065C43.393 35.0639 43.7615 35.1453 44.1779 35.0948C44.5944 35.033 44.9326 34.856 45.2077 34.6171C45.2128 34.6143 45.2153 34.6087 45.2204 34.6059C45.4652 34.3924 45.6469 34.0356 45.8009 33.763C45.8034 33.7574 45.8085 33.7518 45.811 33.7462C45.8918 33.6001 45.9599 33.454 46.0205 33.3107C46.2729 32.6926 46.341 32.1391 46.3436 32.1194L45.6646 32.2936H45.6671Z" fill="#F16564"/>
<path d="M43.6378 30.1668C42.0224 30.4337 41.4318 32.7881 41.4318 32.7881C41.7196 33.1168 42.1259 32.8387 42.1259 32.8387C42.1663 32.819 42.2067 32.7966 42.2446 32.7713C42.6762 32.5072 43.0068 32.0745 43.5015 31.9368C43.6025 31.9087 43.711 31.8947 43.8271 31.8891C43.9407 31.8638 44.0492 31.8469 44.1527 31.8469C44.6626 31.8469 45.0765 32.1784 45.5536 32.3189C45.5965 32.333 45.6394 32.3414 45.6823 32.3526C45.6823 32.3526 46.1341 32.5128 46.3436 32.1166C46.3436 32.1166 45.2608 29.9898 43.6353 30.164L43.6378 30.1668Z" fill="#D94058"/>
<path d="M45.7706 32.3076C45.238 33.9794 44.2814 34.235 44.0896 34.2716C42.9992 34.4205 42.0426 32.9201 42.03 32.8162C42.03 32.8049 42.1259 32.7122 42.1436 32.6926C42.3051 32.5015 42.3556 31.8553 42.9311 31.4311C42.9336 31.4311 42.9361 31.4282 42.9386 31.4254C42.9462 31.4198 42.9538 31.4142 42.9588 31.4114C42.9614 31.4114 42.9664 31.4058 42.9715 31.403C42.9765 31.4001 42.9816 31.3973 42.9841 31.3945C42.9841 31.3945 42.9891 31.3917 42.9917 31.3889C43.0018 31.3833 43.0144 31.3749 43.027 31.3664C43.0396 31.358 43.0522 31.3496 43.0648 31.344C43.0775 31.3355 43.0876 31.3299 43.1027 31.3215C43.1078 31.3215 43.1103 31.3159 43.1153 31.3159C43.2037 31.2681 43.2996 31.2231 43.4031 31.1894C43.5066 31.1557 43.6176 31.1276 43.7388 31.1108C43.9785 31.077 44.1956 31.0939 44.3874 31.1417C44.3925 31.1417 44.3975 31.1417 44.4001 31.1445C44.4152 31.1473 44.4278 31.1529 44.4404 31.1557C44.4531 31.1585 44.4682 31.1641 44.4808 31.167C44.496 31.1726 44.5086 31.1754 44.5187 31.1782C44.5212 31.1782 44.5237 31.1782 44.5263 31.181C44.5313 31.181 44.5364 31.1838 44.5414 31.1866C44.5465 31.1866 44.5515 31.1894 44.554 31.1922C44.5616 31.195 44.5692 31.1979 44.5793 31.2007C44.5818 31.2007 44.5843 31.2007 44.5894 31.2035C45.238 31.4591 45.4702 32.052 45.6267 32.2149C45.6469 32.2346 45.7656 32.2936 45.763 32.3048L45.7706 32.3076Z" fill="#741C55"/>
<g style="mix-blend-mode:soft-light">
<path d="M44.8796 33.94L45.3289 34.2519C45.5308 34.0777 45.6949 33.8164 45.6949 33.8164L45.0386 33.7237L44.8821 33.94H44.8796Z" fill="#FBDCEA"/>
</g>
<path d="M44.0316 33.9007C43.9912 33.8895 43.4132 33.8361 43.1532 34.0356C43.1532 34.0356 43.5747 34.3418 44.082 34.2744C44.0795 34.2744 44.0972 34.2744 44.0921 34.2744C44.5162 34.2154 44.9251 33.7968 44.9251 33.7968C44.6903 33.6816 44.3799 33.69 44.0316 33.9035V33.9007Z" fill="#BF2940"/>
<g style="mix-blend-mode:multiply" opacity="0.6">
<path d="M45.7706 32.3076C45.4551 33.2404 45.1522 33.5326 45.1169 33.5804C44.973 33.0157 43.3324 33.114 42.9715 33.9119C42.4919 33.5551 42.0426 32.9201 42.03 32.8162C42.03 32.8049 42.1007 32.7488 42.1436 32.6926C42.2748 32.5127 42.3556 31.8553 42.9311 31.4311C42.9336 31.4311 42.9361 31.4282 42.9386 31.4254C42.9462 31.4198 42.9538 31.4142 42.9588 31.4114C42.9614 31.4114 42.9664 31.4058 42.9715 31.403C42.9765 31.4001 42.9816 31.3973 42.9841 31.3945C42.9841 31.3945 42.9891 31.3917 42.9917 31.3889C43.0018 31.3833 43.0144 31.3749 43.027 31.3664C43.0396 31.358 43.0522 31.3496 43.0648 31.344C43.0775 31.3355 43.0876 31.3299 43.1027 31.3215C43.1078 31.3215 43.1103 31.3159 43.1153 31.3159C43.2037 31.2681 43.2996 31.2231 43.4031 31.1894C43.5066 31.1557 43.6176 31.1276 43.7388 31.1108C43.9785 31.077 44.1956 31.0939 44.3874 31.1417C44.3925 31.1417 44.3975 31.1417 44.4001 31.1445C44.4152 31.1473 44.4278 31.1529 44.4404 31.1557C44.4531 31.1585 44.4682 31.1641 44.4808 31.167C44.496 31.1726 44.5086 31.1754 44.5187 31.1782C44.5212 31.1782 44.5237 31.1782 44.5263 31.181C44.5313 31.181 44.5364 31.1838 44.5414 31.1866C44.5465 31.1866 44.5515 31.1894 44.554 31.1922C44.5616 31.195 44.5692 31.1979 44.5793 31.2007C44.5818 31.2007 44.5843 31.2007 44.5894 31.2035C45.238 31.4591 45.4728 32.0604 45.6267 32.2149C45.6797 32.2683 45.7681 32.2936 45.763 32.3048L45.7706 32.3076Z" fill="#CC77B1"/>
</g>
<g style="mix-blend-mode:multiply" opacity="0.6">
<path d="M42.5525 32.5521C43.3021 33.0494 45.4349 32.2318 45.1951 31.8132C44.9579 31.3974 44.0265 30.886 43.2264 31.3131C42.7822 31.5491 42.2294 32.3386 42.55 32.5521H42.5525Z" fill="#CC77B1"/>
</g>
<path d="M44.5969 31.2035C44.5969 31.2035 44.5919 31.2035 44.5868 31.2007C44.5818 31.2007 44.5717 31.1951 44.5616 31.1922C44.5565 31.1922 44.554 31.1894 44.549 31.1866C44.5439 31.1866 44.5389 31.1838 44.5338 31.181C44.5313 31.181 44.5288 31.181 44.5262 31.1782C44.4959 31.167 44.453 31.1557 44.4051 31.1417C44.4 31.1417 44.3975 31.1417 44.3925 31.1389C44.2309 31.0967 43.9911 31.0574 43.7463 31.0911H43.7413H43.7362C43.4914 31.1248 43.2668 31.2288 43.1204 31.3131C43.1153 31.3131 43.1128 31.3187 43.1077 31.3187C43.0648 31.344 43.027 31.3664 42.9992 31.3861C42.9967 31.3861 42.9942 31.3889 42.9916 31.3917C42.9866 31.3945 42.9815 31.3974 42.979 31.4002C42.974 31.403 42.9714 31.4058 42.9664 31.4086C42.9563 31.4142 42.9512 31.4198 42.9462 31.4226C42.9412 31.4254 42.9386 31.4283 42.9386 31.4283C43.2188 31.462 43.5141 31.4395 43.7791 31.3945C44.0467 31.3664 44.3369 31.3074 44.602 31.2007L44.5969 31.2035Z" fill="#FBDCEA"/>
<path d="M45.1068 39.4075L45.6621 43.8776L53.6279 45.2767L45.6621 59.2123L31.4922 44.4844L37.5625 44.2737L36.7725 39.149L45.1068 39.4075Z" fill="#010101"/>
<defs>
<linearGradient id="paint0_linear_5_1198" x1="53.3842" y1="43.2686" x2="31.4361" y2="44.9451" gradientUnits="userSpaceOnUse">
<stop stop-color="#F9AF9C"/>
<stop offset="0.2" stop-color="#F69B8E"/>
<stop offset="0.47" stop-color="#F48781"/>
<stop offset="0.73" stop-color="#F37B79"/>
<stop offset="1" stop-color="#F37777"/>
</linearGradient>
<linearGradient id="paint1_linear_5_1198" x1="52.8839" y1="20.8005" x2="28.2587" y2="22.6815" gradientUnits="userSpaceOnUse">
<stop stop-color="#F8A795"/>
<stop offset="0.43" stop-color="#F8A997"/>
<stop offset="0.52" stop-color="#F7A290"/>
<stop offset="0.76" stop-color="#F69684"/>
<stop offset="1" stop-color="#F69280"/>
</linearGradient>
<linearGradient id="paint2_linear_5_1198" x1="48.5979" y1="24.5013" x2="48.6075" y2="20.9668" gradientUnits="userSpaceOnUse">
<stop stop-color="#E6DBEC"/>
<stop offset="1" stop-color="#B8C1E2"/>
</linearGradient>
<linearGradient id="paint3_linear_5_1198" x1="48.4731" y1="24.6407" x2="48.1781" y2="21.4427" gradientUnits="userSpaceOnUse">
<stop stop-color="#48204B"/>
<stop offset="1" stop-color="#301138"/>
</linearGradient>
<linearGradient id="paint4_linear_5_1198" x1="48.4652" y1="24.5397" x2="48.187" y2="21.5319" gradientUnits="userSpaceOnUse">
<stop stop-color="#57345B"/>
<stop offset="1" stop-color="#301138"/>
</linearGradient>
<linearGradient id="paint5_linear_5_1198" x1="48.4255" y1="23.7539" x2="48.2454" y2="21.8027" gradientUnits="userSpaceOnUse">
<stop stop-color="#A093B6"/>
<stop offset="0.99" stop-color="#734B61"/>
</linearGradient>
<linearGradient id="paint6_linear_5_1198" x1="45.8155" y1="22.0016" x2="51.0494" y2="21.6118" gradientUnits="userSpaceOnUse">
<stop stop-color="#F7A190"/>
<stop offset="0.43" stop-color="#F3A592"/>
<stop offset="0.51" stop-color="#F39F8D"/>
<stop offset="0.76" stop-color="#F49383"/>
<stop offset="1" stop-color="#F58F80"/>
</linearGradient>
<linearGradient id="paint7_linear_5_1198" x1="37.1462" y1="26.0426" x2="36.1633" y2="22.0664" gradientUnits="userSpaceOnUse">
<stop stop-color="#E6DBEC"/>
<stop offset="1" stop-color="#B8C1E2"/>
</linearGradient>
<linearGradient id="paint8_linear_5_1198" x1="37.1472" y1="25.7433" x2="36.5957" y2="22.0497" gradientUnits="userSpaceOnUse">
<stop stop-color="#48204B"/>
<stop offset="1" stop-color="#301138"/>
</linearGradient>
<linearGradient id="paint9_linear_5_1198" x1="37.1373" y1="25.3322" x2="36.6188" y2="21.8548" gradientUnits="userSpaceOnUse">
<stop stop-color="#57345B"/>
<stop offset="1" stop-color="#301138"/>
</linearGradient>
<linearGradient id="paint10_linear_5_1198" x1="37.06" y1="25.0532" x2="36.7229" y2="22.796" gradientUnits="userSpaceOnUse">
<stop stop-color="#A093B6"/>
<stop offset="0.99" stop-color="#734B61"/>
</linearGradient>
<linearGradient id="paint11_linear_5_1198" x1="39.6378" y1="22.3324" x2="33.5607" y2="23.0648" gradientUnits="userSpaceOnUse">
<stop stop-color="#F7A190"/>
<stop offset="0.43" stop-color="#F3A592"/>
<stop offset="0.51" stop-color="#F39F8D"/>
<stop offset="0.76" stop-color="#F49383"/>
<stop offset="1" stop-color="#F58F80"/>
</linearGradient>
<linearGradient id="paint12_linear_5_1198" x1="43.5304" y1="29.0249" x2="43.158" y2="25.5309" gradientUnits="userSpaceOnUse">
<stop stop-color="#F37B7F"/>
<stop offset="0.4" stop-color="#F3817F"/>
<stop offset="1" stop-color="#F48680"/>
</linearGradient>
<linearGradient id="paint13_linear_5_1198" x1="45.3274" y1="27.6903" x2="45.1225" y2="25.7675" gradientUnits="userSpaceOnUse">
<stop stop-color="#FBE3D4"/>
<stop offset="0.99" stop-color="#AE7CB7"/>
</linearGradient>
<linearGradient id="paint14_linear_5_1198" x1="41.5905" y1="28.0848" x2="41.3856" y2="26.162" gradientUnits="userSpaceOnUse">
<stop stop-color="#FBE3D4"/>
<stop offset="0.99" stop-color="#AE7CB7"/>
</linearGradient>
<linearGradient id="paint15_linear_5_1198" x1="48.9031" y1="16.4063" x2="49.0943" y2="18.4269" gradientUnits="userSpaceOnUse">
<stop stop-color="#31111B"/>
<stop offset="1" stop-color="#1A0F21"/>
</linearGradient>
<linearGradient id="paint16_linear_5_1198" x1="52.8849" y1="16.9994" x2="47.0799" y2="17.4428" gradientUnits="userSpaceOnUse">
<stop stop-color="#31111B"/>
<stop offset="1" stop-color="#1A0F21"/>
</linearGradient>
<linearGradient id="paint17_linear_5_1198" x1="35.3395" y1="17.6411" x2="35.5307" y2="19.6616" gradientUnits="userSpaceOnUse">
<stop stop-color="#31111B"/>
<stop offset="1" stop-color="#1A0F21"/>
</linearGradient>
<linearGradient id="paint18_linear_5_1198" x1="37.3073" y1="18.4738" x2="31.5023" y2="18.9172" gradientUnits="userSpaceOnUse">
<stop stop-color="#31111B"/>
<stop offset="1" stop-color="#1A0F21"/>
</linearGradient>
<linearGradient id="paint19_linear_5_1198" x1="30.5667" y1="34.8867" x2="28.8115" y2="24.6182" gradientUnits="userSpaceOnUse">
<stop stop-color="#F7A190"/>
<stop offset="0.43" stop-color="#F3A592"/>
<stop offset="0.51" stop-color="#F39F8D"/>
<stop offset="0.76" stop-color="#F49383"/>
<stop offset="1" stop-color="#F58F80"/>
</linearGradient>
<linearGradient id="paint20_linear_5_1198" x1="30.1962" y1="32.2013" x2="28.9877" y2="25.131" gradientUnits="userSpaceOnUse">
<stop stop-color="#F7A190"/>
<stop offset="0.43" stop-color="#F3A592"/>
<stop offset="0.51" stop-color="#F39F8D"/>
<stop offset="0.76" stop-color="#F49383"/>
<stop offset="1" stop-color="#F58F80"/>
</linearGradient>
<linearGradient id="paint21_linear_5_1198" x1="30.8565" y1="29.4164" x2="30.3315" y2="26.3453" gradientUnits="userSpaceOnUse">
<stop stop-color="#F7A190"/>
<stop offset="0.43" stop-color="#F3A592"/>
<stop offset="0.51" stop-color="#F39F8D"/>
<stop offset="0.76" stop-color="#F49383"/>
<stop offset="1" stop-color="#F58F80"/>
</linearGradient>
<linearGradient id="paint22_linear_5_1198" x1="28.0736" y1="30.0976" x2="32.0229" y2="29.5528" gradientUnits="userSpaceOnUse">
<stop stop-color="#F7A190"/>
<stop offset="0.43" stop-color="#F3A592"/>
<stop offset="0.51" stop-color="#F39F8D"/>
<stop offset="0.76" stop-color="#F49383"/>
<stop offset="1" stop-color="#F58F80"/>
</linearGradient>
<linearGradient id="paint23_linear_5_1198" x1="48.8954" y1="191.412" x2="68.6812" y2="191.412" gradientUnits="userSpaceOnUse">
<stop stop-color="#F7A190"/>
<stop offset="0.43" stop-color="#F3A592"/>
<stop offset="0.51" stop-color="#F39F8D"/>
<stop offset="0.76" stop-color="#F49383"/>
<stop offset="1" stop-color="#F58F80"/>
</linearGradient>
<linearGradient id="paint24_linear_5_1198" x1="50.3921" y1="249.062" x2="77.8257" y2="249.062" gradientUnits="userSpaceOnUse">
<stop stop-color="#92324C"/>
<stop offset="1" stop-color="#9A2743"/>
</linearGradient>
<linearGradient id="paint25_linear_5_1198" x1="15.4722" y1="199.782" x2="33.2918" y2="199.782" gradientUnits="userSpaceOnUse">
<stop stop-color="#F7A190"/>
<stop offset="0.43" stop-color="#F3A592"/>
<stop offset="0.51" stop-color="#F39F8D"/>
<stop offset="0.76" stop-color="#F49383"/>
<stop offset="1" stop-color="#F58F80"/>
</linearGradient>
<linearGradient id="paint26_linear_5_1198" x1="15.4722" y1="191.575" x2="33.2918" y2="191.575" gradientUnits="userSpaceOnUse">
<stop stop-color="#F7A190"/>
<stop offset="0.43" stop-color="#F3A592"/>
<stop offset="0.51" stop-color="#F39F8D"/>
<stop offset="0.76" stop-color="#F49383"/>
<stop offset="1" stop-color="#F58F80"/>
</linearGradient>
<linearGradient id="paint27_linear_5_1198" x1="4.6644" y1="0.000340123" x2="32.098" y2="0.000340123" gradientUnits="userSpaceOnUse">
<stop stop-color="#92324C"/>
<stop offset="1" stop-color="#9A2743"/>
</linearGradient>
<linearGradient id="paint28_linear_5_1198" x1="10.9164" y1="157.073" x2="74.2996" y2="157.073" gradientUnits="userSpaceOnUse">
<stop stop-color="#92324C"/>
<stop offset="1" stop-color="#9A2743"/>
</linearGradient>
<linearGradient id="paint29_linear_5_1198" x1="66.6241" y1="33.8782" x2="98.9997" y2="33.8782" gradientUnits="userSpaceOnUse">
<stop stop-color="#F7A190"/>
<stop offset="0.43" stop-color="#F3A592"/>
<stop offset="0.51" stop-color="#F39F8D"/>
<stop offset="0.76" stop-color="#F49383"/>
<stop offset="1" stop-color="#F58F80"/>
</linearGradient>
<linearGradient id="paint30_linear_5_1198" x1="89.3453" y1="16.7763" x2="98.8256" y2="16.7763" gradientUnits="userSpaceOnUse">
<stop stop-color="#F7A190"/>
<stop offset="0.43" stop-color="#F3A592"/>
<stop offset="0.51" stop-color="#F39F8D"/>
<stop offset="0.76" stop-color="#F49383"/>
<stop offset="1" stop-color="#F58F80"/>
</linearGradient>
<linearGradient id="paint31_linear_5_1198" x1="86.8844" y1="16.8408" x2="92.9471" y2="16.8408" gradientUnits="userSpaceOnUse">
<stop stop-color="#F7A190"/>
<stop offset="0.43" stop-color="#F3A592"/>
<stop offset="0.51" stop-color="#F39F8D"/>
<stop offset="0.76" stop-color="#F49383"/>
<stop offset="1" stop-color="#F58F80"/>
</linearGradient>
<linearGradient id="paint32_linear_5_1198" x1="88.1364" y1="14.0285" x2="96.1375" y2="14.0285" gradientUnits="userSpaceOnUse">
<stop stop-color="#F7A190"/>
<stop offset="0.43" stop-color="#F3A592"/>
<stop offset="0.51" stop-color="#F39F8D"/>
<stop offset="0.76" stop-color="#F49383"/>
<stop offset="1" stop-color="#F58F80"/>
</linearGradient>
<linearGradient id="paint33_linear_5_1198" x1="95.986" y1="12.3792" x2="98.9745" y2="12.3792" gradientUnits="userSpaceOnUse">
<stop stop-color="#F7A190"/>
<stop offset="0.43" stop-color="#F3A592"/>
<stop offset="0.51" stop-color="#F39F8D"/>
<stop offset="0.76" stop-color="#F49383"/>
<stop offset="1" stop-color="#F58F80"/>
</linearGradient>
<linearGradient id="paint34_linear_5_1198" x1="89.5851" y1="12.899" x2="92.5761" y2="12.899" gradientUnits="userSpaceOnUse">
<stop stop-color="#F7A190"/>
<stop offset="0.43" stop-color="#F3A592"/>
<stop offset="0.51" stop-color="#F39F8D"/>
<stop offset="0.76" stop-color="#F49383"/>
<stop offset="1" stop-color="#F58F80"/>
</linearGradient>
<linearGradient id="paint35_linear_5_1198" x1="93.7851" y1="12.826" x2="96.776" y2="12.826" gradientUnits="userSpaceOnUse">
<stop stop-color="#F7A190"/>
<stop offset="0.43" stop-color="#F3A592"/>
<stop offset="0.51" stop-color="#F39F8D"/>
<stop offset="0.76" stop-color="#F49383"/>
<stop offset="1" stop-color="#F58F80"/>
</linearGradient>
<linearGradient id="paint36_linear_5_1198" x1="91.7179" y1="13.0479" x2="94.7089" y2="13.0479" gradientUnits="userSpaceOnUse">
<stop stop-color="#F7A190"/>
<stop offset="0.43" stop-color="#F3A592"/>
<stop offset="0.51" stop-color="#F39F8D"/>
<stop offset="0.76" stop-color="#F49383"/>
<stop offset="1" stop-color="#F58F80"/>
</linearGradient>
<linearGradient id="paint37_linear_5_1198" x1="0.00253697" y1="73.8418" x2="35.9926" y2="73.8418" gradientUnits="userSpaceOnUse">
<stop stop-color="#F7A190"/>
<stop offset="0.43" stop-color="#F3A592"/>
<stop offset="0.51" stop-color="#F39F8D"/>
<stop offset="0.76" stop-color="#F49383"/>
<stop offset="1" stop-color="#F58F80"/>
</linearGradient>
<linearGradient id="paint38_linear_5_1198" x1="9.04865" y1="225.585" x2="36.2399" y2="225.585" gradientUnits="userSpaceOnUse">
<stop stop-color="#92324C"/>
<stop offset="1" stop-color="#9A2743"/>
</linearGradient>
<linearGradient id="paint39_linear_5_1198" x1="45.8766" y1="225.768" x2="74.4889" y2="225.768" gradientUnits="userSpaceOnUse">
<stop stop-color="#92324C"/>
<stop offset="1" stop-color="#9A2743"/>
</linearGradient>
</defs>
</svg>
