<svg width="73" height="211" viewBox="0 0 73 211" fill="none" xmlns="http://www.w3.org/2000/svg">
<path d="M43.4078 25.0203L44.0642 34.1871L51.4547 34.8132L41.6062 44.4873L28.6872 35.9962L34.6002 34.2712L34.949 21.9268L43.4078 25.0203Z" fill="url(#paint0_linear_1_25)"/>
<path d="M42.0401 2.90524C42.0401 2.90524 53.3634 4.16245 54.1187 16.2718C54.8767 28.3811 44.8881 30.5837 38.695 29.1186C32.5019 27.6535 28.9288 21.1942 28.429 17.5661C27.9264 13.938 31.7247 2.21971 42.0401 2.90524Z" fill="url(#paint1_linear_1_25)"/>
<path d="M46.4536 19.1599C46.1597 19.056 47.651 16.987 49.5735 16.7767C51.8969 16.5218 52.2182 18.4175 52.1688 18.7961C52.1194 19.1723 47.8735 19.6574 46.4536 19.1624V19.1599Z" fill="url(#paint2_linear_1_25)"/>
<path d="M51.1334 18.8357C51.117 19.009 51.0593 19.1698 50.9714 19.3109C50.9522 19.3431 48.6699 19.5138 48.6507 19.494C48.431 19.254 48.3129 18.9446 48.3459 18.6155C48.4145 17.9398 49.0929 17.4399 49.8619 17.5018C50.6308 17.5637 51.1993 18.1601 51.1334 18.8357Z" fill="url(#paint3_linear_1_25)"/>
<path style="mix-blend-mode:multiply" d="M50.6446 18.7986C50.6007 19.2366 50.1612 19.5608 49.6614 19.5213C49.1616 19.4817 48.7935 19.0931 48.8375 18.6551C48.8814 18.217 49.3208 17.8928 49.8207 17.9324C50.3205 17.972 50.6885 18.3606 50.6446 18.7986Z" fill="url(#paint4_linear_1_25)"/>
<path d="M46.5771 18.7268C46.5771 18.7268 47.8158 15.7595 49.9195 15.6506C52.0232 15.5442 52.1303 18.368 52.1303 18.368C52.1303 18.368 51.787 16.8583 49.8096 16.7989C47.8322 16.7371 46.5771 18.7244 46.5771 18.7244V18.7268Z" fill="url(#paint5_linear_1_25)"/>
<path d="M46.5058 18.8432L46.8024 19.2515C46.8024 19.2515 46.3767 19.254 46.3437 19.1451C46.3108 19.0337 46.5058 18.8432 46.5058 18.8432V18.8432Z" fill="#D66C7C"/>
<path d="M47.077 19.3084C47.077 19.3084 48.6837 19.6623 50.1173 19.5188C51.5509 19.3752 52.0754 18.8852 52.0754 18.8852C52.0754 18.8852 49.7822 19.4841 47.0743 19.3084H47.077Z" fill="#D66C7C"/>
<path d="M50.304 17.9398C50.2079 18.0067 50.6198 18.0562 50.9412 17.9695C51.2295 17.8904 51.3778 17.7394 51.3559 17.7072C51.3311 17.6775 50.6857 17.68 50.304 17.9398V17.9398Z" fill="white"/>
<path d="M50.0596 17.9918C49.947 17.9448 49.8014 17.9918 49.7904 18.0487C49.7794 18.1057 49.9168 18.1898 49.9882 18.17C50.0596 18.1527 50.1227 18.019 50.0596 17.9918Z" fill="white"/>
<g style="mix-blend-mode:multiply" opacity="0.6">
<path d="M46.5057 18.8432C46.5057 18.8432 47.9229 17.4028 49.5844 17.2444C51.246 17.0885 51.9518 17.9968 51.9518 17.9968C51.9518 17.9968 51.8337 16.8856 49.6806 16.8583C47.5246 16.8311 46.5057 18.8407 46.5057 18.8407V18.8432Z" fill="#C978B1"/>
</g>
<path d="M46.5057 18.8432C46.5057 18.8432 47.6949 16.888 49.9222 16.9153C51.9106 16.94 52.1605 18.5586 52.1605 18.5586C52.1605 18.5586 52.5066 17.185 51.1801 16.7519C49.9195 16.3386 47.6372 16.7915 46.503 18.8432H46.5057Z" fill="#401432"/>
<path d="M40.3319 18.6155C40.6889 18.5363 39.3047 15.9451 37.1159 15.4452C34.4738 14.8413 33.7927 16.992 33.7872 17.435C33.7817 17.878 38.6099 18.9991 40.3319 18.6155V18.6155Z" fill="url(#paint6_linear_1_25)"/>
<path d="M36.7424 17.68C36.7259 18.0636 36.8989 18.415 37.1818 18.6575C37.223 18.6922 39.0109 18.7095 39.0576 18.6699C39.324 18.4496 39.497 18.1329 39.5107 17.7765C39.5382 17.0761 38.9422 16.4846 38.1787 16.4574C37.4152 16.4302 36.7698 16.9771 36.7424 17.6775V17.68Z" fill="url(#paint7_linear_1_25)"/>
<path style="mix-blend-mode:multiply" d="M37.2285 17.6973C37.2092 18.1527 37.5965 18.5363 38.0936 18.5536C38.5907 18.5709 39.0081 18.217 39.0246 17.7616C39.0438 17.3063 38.6566 16.9227 38.1595 16.9053C37.6624 16.888 37.2449 17.2419 37.2285 17.6973Z" fill="url(#paint8_linear_1_25)"/>
<path d="M40.2605 18.0982C40.2605 18.0982 39.3157 14.5023 36.9016 14.1014C34.4876 13.698 33.9026 16.9499 33.9026 16.9499C33.9026 16.9499 34.5452 15.2522 36.8412 15.4452C39.1372 15.6382 40.2632 18.1007 40.2632 18.1007L40.2605 18.0982Z" fill="url(#paint9_linear_1_25)"/>
<path d="M40.3236 18.2442L39.9144 18.6773C39.9144 18.6773 40.406 18.7367 40.461 18.6155C40.5159 18.4917 40.3236 18.2467 40.3236 18.2467V18.2442Z" fill="#D66C7C"/>
<path d="M39.5876 18.7046C39.5876 18.7046 37.6706 18.9025 36.0393 18.5437C34.4079 18.1873 33.8779 17.5513 33.8779 17.5513C33.8779 17.5513 36.4293 18.5462 39.5876 18.7021V18.7046Z" fill="#D66C7C"/>
<path d="M38.7252 17.9918C38.8653 17.9547 39.0218 18.024 39.0246 18.0908C39.0273 18.1576 38.8543 18.2368 38.7774 18.2047C38.7005 18.175 38.6483 18.0116 38.7252 17.9893V17.9918Z" fill="white"/>
<g style="mix-blend-mode:multiply" opacity="0.6">
<path d="M40.3237 18.2442C40.3237 18.2442 38.9203 16.3906 37.0252 15.9897C35.1302 15.5888 34.1663 16.5465 34.1663 16.5465C34.1663 16.5465 34.4821 15.2794 36.9786 15.5343C39.4723 15.7892 40.3237 18.2467 40.3237 18.2467V18.2442Z" fill="#C978B1"/>
</g>
<path d="M40.3236 18.2442C40.3236 18.2442 39.269 15.8263 36.6874 15.564C34.3832 15.3289 33.8311 17.1677 33.8311 17.1677C33.8311 17.1677 33.6581 15.5343 35.2593 15.2101C36.7835 14.9007 39.3486 15.7273 40.3209 18.2467L40.3236 18.2442Z" fill="#401432"/>
<path d="M46.2283 22.1594C46.2283 22.1594 46.1844 22.2609 45.7477 22.2485C45.311 22.2386 44.8798 22.5579 44.1438 22.5158C43.405 22.4737 43.059 22.1099 42.625 22.0703C42.1911 22.0307 42.1225 21.9243 42.1225 21.9243C42.0758 21.6644 42.1334 21.417 42.2296 21.2091C42.2296 21.2091 42.2296 21.2041 42.2323 21.2017C42.4026 20.8354 42.68 20.5879 42.68 20.5879C43.7483 20.1969 44.8606 20.2612 45.8658 20.771C45.8658 20.771 46.0196 20.9492 46.1404 21.2165V21.219C46.2558 21.4788 46.3436 21.8179 46.2283 22.1619V22.1594Z" fill="url(#paint10_linear_1_25)"/>
<path d="M45.2231 22.3475C45.2231 22.3475 45.5774 22.1074 45.9839 22.2436L45.2231 22.3475Z" fill="#812852"/>
<path d="M42.4026 22.0382C42.4026 22.0382 42.8338 21.9491 43.2347 22.2757L42.4026 22.0382Z" fill="#812852"/>
<g style="mix-blend-mode:multiply" opacity="0.6">
<path d="M46.2283 22.1594C46.2283 22.1594 46.1844 22.2609 45.7477 22.2485C45.311 22.2386 44.8798 22.5579 44.1438 22.5158C43.405 22.4737 43.059 22.1099 42.625 22.0703C42.1911 22.0307 42.1225 21.9243 42.1225 21.9243C42.0758 21.6644 42.1334 21.417 42.2296 21.2091C42.2103 21.2709 42.0895 21.6694 42.2543 21.7783C42.4355 21.8946 43.5094 21.8946 44.1822 21.9342C44.8551 21.9738 45.9976 22.0406 46.1377 21.8872C46.2722 21.7412 46.1514 21.2635 46.1377 21.219C46.253 21.4788 46.3409 21.8179 46.2256 22.1619L46.2283 22.1594Z" fill="#C978B1"/>
</g>
<path style="mix-blend-mode:multiply" opacity="0.6" d="M45.863 20.7686C45.863 20.7686 45.5774 21.4219 45.5719 21.8921C45.5719 21.8921 45.4263 21.4244 45.7147 20.6968L45.863 20.7686V20.7686Z" fill="url(#paint11_linear_1_25)"/>
<path style="mix-blend-mode:multiply" opacity="0.6" d="M42.7157 20.5879C42.7157 20.5879 42.9079 21.2685 42.8475 21.7362C42.8475 21.7362 43.059 21.2907 42.875 20.5334L42.7184 20.5879H42.7157Z" fill="url(#paint12_linear_1_25)"/>
<g style="mix-blend-mode:multiply" opacity="0.6">
<path d="M42.257 21.7783C42.257 21.7783 42.1472 21.8748 42.1224 21.9243C42.0977 21.9763 43.015 22.8623 44.1136 22.9241C45.2121 22.986 46.2008 22.2609 46.2283 22.1594C46.2557 22.0604 46.0855 21.9218 46.0855 21.9218C46.0855 21.9218 45.2204 21.9936 44.1822 21.9317C43.1468 21.8723 42.2543 21.7758 42.2543 21.7758L42.257 21.7783Z" fill="#C978B1"/>
</g>
<path d="M45.0748 21.756C44.9238 21.6669 45.2149 21.4516 45.289 21.464C45.3632 21.4788 45.3907 21.6298 45.344 21.7238C45.2973 21.8179 45.138 21.7931 45.0748 21.756V21.756Z" fill="#FBC9B8"/>
<path d="M46.6238 14.1583C46.6238 14.1583 47.2664 13.9653 48.766 14.0345C49.2109 14.0543 49.7299 14.0989 50.3314 14.1781C52.9597 14.5246 54.7833 15.1037 54.7833 15.1037C54.7723 15.0616 54.1434 13.9677 53.2536 13.4332C53.259 13.4431 53.3579 13.6311 53.325 13.8192C53.325 13.8192 52.3253 13.0001 50.8724 12.5843C50.6005 12.5076 50.3149 12.4432 50.0156 12.4036C48.1151 12.1413 47.0907 13.3391 47.0907 13.3391C47.0907 13.3391 47.1676 13.0149 47.39 12.8343C47.39 12.8343 46.7336 13.151 46.621 14.1558L46.6238 14.1583Z" fill="url(#paint13_linear_1_25)"/>
<path style="mix-blend-mode:multiply" opacity="0.6" d="M48.7659 14.037C49.2108 14.0568 49.7299 14.1014 50.3314 14.1806C52.9597 14.527 54.7833 15.1062 54.7833 15.1062C54.7723 15.0641 54.1434 13.9702 53.2535 13.4356C53.259 13.4455 53.3579 13.6336 53.3249 13.8217C53.3249 13.8217 52.3252 13.0025 50.8724 12.5868C51.3723 12.8615 52.4598 13.4777 53.0393 14.334C53.0393 14.334 51.6551 13.7722 48.7632 14.0346L48.7659 14.037Z" fill="url(#paint14_linear_1_25)"/>
<path d="M40.6065 13.6881C40.6065 13.6881 40.0106 13.3985 38.522 13.2352C38.0799 13.1857 37.558 13.1486 36.9511 13.1337C34.2953 13.0669 32.3893 13.3565 32.3893 13.3565C32.4086 13.3169 33.238 12.3368 34.2157 11.9483C34.2075 11.9582 34.0756 12.1265 34.0729 12.317C34.0729 12.317 35.2126 11.6637 36.7231 11.483C37.0033 11.4484 37.2999 11.431 37.602 11.436C39.5245 11.4731 40.3044 12.812 40.3044 12.812C40.3044 12.812 40.2907 12.4804 40.1067 12.2675C40.1067 12.2675 40.6944 12.6808 40.612 13.6906L40.6065 13.6881Z" fill="url(#paint15_linear_1_25)"/>
<path style="mix-blend-mode:multiply" opacity="0.6" d="M38.5192 13.2352C38.077 13.1857 37.5552 13.1486 36.9483 13.1337C34.2925 13.0669 32.3865 13.3564 32.3865 13.3564C32.4058 13.3169 33.2352 12.3368 34.2129 11.9483C34.2046 11.9582 34.0728 12.1265 34.0701 12.317C34.0701 12.317 35.2098 11.6637 36.7203 11.483C36.1738 11.676 34.9874 12.1141 34.2513 12.8689C34.2513 12.8689 35.7234 12.5323 38.5192 13.2377V13.2352Z" fill="url(#paint16_linear_1_25)"/>
<path d="M27.0256 18.269C27.0833 18.5412 27.1465 18.7862 27.2179 19.004L27.2234 19.0139C27.726 20.578 28.5306 20.9591 28.841 21.6669C29.1101 22.2782 30.1977 23.5156 31.3237 22.2683C31.3265 22.2683 31.3292 22.2658 31.3292 22.2658C31.3292 22.2658 30.9145 17.1058 30.5135 16.1629C30.5135 16.1629 29.9368 14.7473 28.8492 14.5171C27.4513 14.2202 26.5313 15.8684 27.0284 18.2715L27.0256 18.269Z" fill="url(#paint17_linear_1_25)"/>
<path style="mix-blend-mode:multiply" opacity="0.6" d="M31.0134 19.0609C31.0134 19.0609 28.8767 16.1505 27.8303 15.9427C26.784 15.7372 27.2591 18.1824 27.4513 18.9991C27.6463 19.8158 27.9512 20.3008 27.9512 20.3008C27.9512 20.3008 27.7067 19.3381 27.671 18.561C27.6189 17.4449 28.0336 16.4945 28.473 16.5935C28.9124 16.6925 29.4754 18.1032 29.5111 18.264C29.5468 18.4249 29.209 18.7046 29.2118 19.5708C29.2118 20.4369 29.6512 21.3848 29.9011 21.3774C30.151 21.37 30.0576 20.6671 30.0741 19.8578C30.0906 19.0486 30.7882 19.2193 31.0875 19.7489L31.0106 19.0609H31.0134Z" fill="url(#paint18_linear_1_25)"/>
<path style="mix-blend-mode:multiply" opacity="0.6" d="M31.0902 19.7489C31.0902 19.7489 30.541 18.9694 30.1949 19.3134C29.8489 19.6574 30.0713 20.63 29.8104 20.7438C29.5495 20.8552 29.2172 20.0657 29.2996 19.3505C29.382 18.6353 29.7116 17.9968 30.1565 18.1254L31.0106 19.0634L31.0875 19.7514L31.0902 19.7489Z" fill="url(#paint19_linear_1_25)"/>
<path style="mix-blend-mode:multiply" d="M27.2206 19.0139C27.7232 20.578 28.5279 20.9591 28.8383 21.6669C29.1074 22.2782 30.195 23.5156 31.321 22.2683C31.2551 22.3153 30.6097 22.7707 29.967 22.548C29.2914 22.3129 29.0854 21.7362 28.8081 21.2883C28.5307 20.8403 27.8001 20.5236 27.2206 19.0164V19.0139Z" fill="url(#paint20_linear_1_25)"/>
<path d="M67.2711 53.6368C67.2711 53.6368 63.8793 76.6774 58.0927 76.2419C52.3061 75.8063 58.848 57.7178 58.848 57.7178L67.2711 53.6368Z" fill="url(#paint21_linear_1_25)"/>
<path d="M38.5027 111.058L12.2088 205.386L1.81104 204.304L7.80914 194.573L24.0458 103.982L38.5027 111.058Z" fill="#F8AEA0"/>
<path opacity="0.2" d="M9.41577 185.612L24.0458 103.982L38.5055 111.058L17.3199 187.05C14.6916 186.545 12.055 186.067 9.41577 185.612V185.612Z" fill="#201829"/>
<path d="M42.1967 106.093L45.2369 200.332L52.7977 195.925L62.7479 101.738L42.1967 106.093Z" fill="#F8AEA0"/>
<path opacity="0.2" d="M44.792 186.53L42.1967 106.093L62.7479 101.735L53.8001 186.434C50.7983 186.347 47.7526 186.486 44.792 186.53V186.53Z" fill="#201829"/>
<path d="M59.194 56.3517L57.148 80.2585L24.271 76.3334L33.8476 61.2865L59.194 56.3517Z" fill="#E8A723"/>
<path d="M58.2218 65.8674C58.2218 65.8674 48.2167 69.5673 30.6481 66.8449C30.6481 66.8449 14.8069 79.8873 12.4066 96.4637C10.723 108.1 3.22266 181.066 3.22266 181.066L27.0393 182.694L48.7989 89.6158L38.0001 98.2654L41.1997 181.87L66.1314 183.63C66.1314 183.63 74.7935 109.075 58.2218 65.8674V65.8674Z" fill="#E5BF22"/>
<path d="M29.0524 179.625L1.97855 173.698L0.81134 182.952L28.0033 185.835L29.0524 179.625Z" fill="#E5BF22"/>
<path opacity="0.2" d="M45.1023 95.3822C52.8224 91.6353 58.7765 87.0965 63.2147 82.867C72.8106 126.139 66.1314 183.63 66.1314 183.63L41.1997 181.87L39.236 130.52L38.2144 134.893C42.1142 114.31 45.1023 95.3797 45.1023 95.3797V95.3822Z" fill="#201829"/>
<path d="M67.7462 174.218L39.063 179.583L39.4887 184.971L66.7877 184.803L67.7462 174.218Z" fill="#BE9E23"/>
<path opacity="0.2" d="M31.9499 64.2686L33.8476 61.2865L59.194 56.3492L58.3674 66.0134C51.0208 66.5554 40.579 66.6717 31.9499 64.2686V64.2686Z" fill="#201829"/>
<path d="M47.7965 34.5682C47.7965 34.5682 51.9957 33.7565 55.2941 34.838C58.5925 35.9195 63.6926 45.3783 64.8928 49.432C66.0929 53.4858 66.3923 59.7026 66.3923 59.7026C66.3923 59.7026 39.6974 67.5404 29.5001 62.9471L24.4 50.7833C24.4 50.7833 16.301 37.2682 23.8013 36.7287L30.7003 35.917C30.7003 35.917 46.5963 42.4035 47.7965 34.5657V34.5682Z" fill="#722D15"/>
<path opacity="0.1" d="M62.4567 43.8142C52.8169 51.251 40.4527 56.2601 28.1901 59.8214L29.5001 62.9471C39.6974 67.5428 66.3923 59.7026 66.3923 59.7026C66.3923 59.7026 66.0929 53.4858 64.8928 49.432C64.4753 48.0214 63.58 45.9524 62.4567 43.8117V43.8142Z" fill="#201829"/>
<path d="M53.0504 195.249L44.6519 197.14L43.7511 202.815L72.2448 203.76C72.2448 203.76 70.5476 201.057 53.0504 195.247V195.249Z" fill="white"/>
<path d="M72.2448 203.762L43.7511 202.817L43.4517 204.71L71.9455 204.98L72.2448 203.762Z" fill="#2B2238"/>
<path d="M55.3793 195.89C54.4675 196.694 53.8578 197.714 53.1328 198.649C53.0668 198.736 53.2234 198.818 53.2893 198.731C54.0034 197.808 54.6048 196.798 55.5056 196.006C55.5908 195.932 55.4617 195.816 55.3765 195.89H55.3793Z" fill="#2B2238"/>
<path d="M57.1672 196.368C56.2554 197.172 55.6457 198.192 54.9207 199.127C54.8547 199.214 55.0113 199.295 55.0772 199.209C55.7913 198.286 56.3927 197.276 57.2935 196.484C57.3787 196.41 57.2496 196.293 57.1645 196.368H57.1672Z" fill="#2B2238"/>
<path d="M59.1281 196.972C58.2163 197.776 57.6066 198.795 56.8816 199.731C56.8157 199.818 56.9722 199.899 57.0381 199.813C57.7522 198.89 58.3537 197.88 59.2545 197.088C59.3396 197.014 59.2105 196.897 59.1254 196.972H59.1281Z" fill="#2B2238"/>
<path d="M15.7078 192.816L13.6095 202.951C13.6095 202.951 9.8607 212.815 2.51137 210.519C-4.83796 208.222 7.91076 193.086 7.91076 193.086C7.91076 193.086 11.6596 195.925 15.7078 192.816Z" fill="white"/>
<path d="M2.51137 208.898C9.56958 210.487 13.0245 203.196 13.9583 201.263L13.6095 202.953C13.6095 202.953 9.8607 212.818 2.51137 210.521C0.80037 209.987 0.187926 208.749 0.240107 207.175C0.638333 207.695 1.3112 208.628 2.51137 208.898V208.898Z" fill="#2B2238"/>
<path d="M11.4673 195.625C10.3935 195.002 9.15488 194.695 7.98217 194.267C7.87506 194.227 7.82563 194.385 7.93274 194.425C9.09171 194.846 10.3139 195.15 11.374 195.766C11.4728 195.823 11.5635 195.682 11.4646 195.625H11.4673Z" fill="#2B2238"/>
<path d="M10.6764 197.375C9.5778 196.788 8.32819 196.521 7.13901 196.135C7.02915 196.1 6.98247 196.256 7.08957 196.293C8.26503 196.677 9.5009 196.939 10.583 197.518C10.6846 197.573 10.7752 197.432 10.6736 197.377L10.6764 197.375Z" fill="#2B2238"/>
<path d="M9.55856 199.053C8.52318 198.392 7.30928 198.038 6.16403 197.568C6.05967 197.523 5.96629 197.664 6.0734 197.709C7.21864 198.179 8.43255 198.533 9.46793 199.194C9.56406 199.256 9.65469 199.112 9.55856 199.053Z" fill="#2B2238"/>
<path d="M34.1223 49.5855L38.5769 62.5313L55.8215 57.7994C55.8215 57.7994 54.5224 53.0725 55.8324 52.4637C59.2215 50.8848 68.5427 51.6025 58.4388 53.2086C58.4388 53.2086 74.8621 53.4066 59.6307 55.2256C59.6307 55.2256 61.5477 61.0192 59.0951 62.2863C56.6426 63.5534 36.8851 73.4057 32.4222 73.3043C27.9594 73.2053 23.1834 53.5947 23.1834 53.5947L34.1223 49.583V49.5855Z" fill="url(#paint22_linear_1_25)"/>
<path d="M36.5171 51.7089L21.0055 57.4505C21.0055 57.4505 14.9607 39.2283 23.7986 36.7337C32.6365 34.2391 36.5144 51.7114 36.5144 51.7114L36.5171 51.7089Z" fill="#722D15"/>
<path d="M66.3126 65.1992C66.1588 65.7337 65.5519 66.0505 64.9614 65.9119L57.8181 64.2241C57.2249 64.0855 56.8733 63.5386 57.0271 63.004L61.3801 48.0362C61.5339 47.5017 62.1409 47.1849 62.7314 47.3235L69.8747 49.0113C70.4652 49.1499 70.8195 49.6968 70.6657 50.2314L66.3126 65.1992V65.1992Z" fill="#2B2238"/>
<path d="M69.9379 57.0322C69.9379 57.0322 71.0447 53.8719 70.1219 53.7036C69.1991 53.5378 58.3042 51.7064 68.4603 54.5351C68.4603 54.5351 54.9811 53.8694 67.7216 56.3665C67.7216 56.3665 57.1974 56.0349 67.3535 58.1979C67.3535 58.1979 58.491 58.6978 67.5376 60.1951C67.5376 60.1951 69.7539 60.3609 69.9379 57.0347V57.0322Z" fill="url(#paint23_linear_1_25)"/>
<g style="mix-blend-mode:multiply" opacity="0.6">
<path d="M40.0078 24.2705C40.0078 24.2705 41.4963 26.5597 43.4709 26.7552C45.4456 26.9482 47.445 25.003 47.445 25.003C47.445 25.003 45.2533 25.6786 43.6192 25.5178C41.9851 25.3569 40.0078 24.2729 40.0078 24.2729V24.2705Z" fill="#CE78B1"/>
</g>
<path d="M43.6962 24.8941C43.6962 24.8941 41.9824 24.7728 39.6974 23.9809C39.6974 23.9809 41.1613 25.5722 43.5863 25.8098C46.0086 26.0474 47.8213 24.7778 47.8213 24.7778C45.3989 25.1069 43.6989 24.8916 43.6989 24.8916L43.6962 24.8941Z" fill="#EF7172"/>
<path d="M43.7456 24.4882C42.4933 24.3645 39.6974 23.9784 39.6974 23.9784C41.4002 24.8916 43.6742 25.0698 43.6742 25.0698C43.6742 25.0698 45.9372 25.3371 47.8185 24.7778C47.8185 24.7778 44.9952 24.612 43.7429 24.4882H43.7456Z" fill="#DE4E6C"/>
<g style="mix-blend-mode:soft-light" opacity="0.5">
<path d="M45.4868 25.3346C45.2232 25.3643 44.7178 25.4188 44.7041 25.5475C44.6904 25.6762 44.792 25.7281 45.0611 25.7331C45.3303 25.738 45.8548 25.6069 45.9922 25.5029C46.1295 25.399 45.6379 25.3198 45.4896 25.3346H45.4868Z" fill="#FDF7BA"/>
</g>
<path d="M40.2247 23.5429C40.2247 23.5429 39.5958 23.924 39.3761 24.2556C39.3761 24.2556 39.1289 23.9141 39.291 23.6468C39.4667 23.3548 40.2247 23.5429 40.2247 23.5429Z" fill="#DC6B7D"/>
<path d="M47.3516 24.2457C47.3516 24.2457 47.8762 24.7407 48.0108 25.107C48.0108 25.107 48.3348 24.8199 48.2415 24.5303C48.1398 24.2111 47.3544 24.2482 47.3544 24.2482L47.3516 24.2457Z" fill="#DC6B7D"/>
<path d="M39.8348 23.8151C39.8348 23.8151 40.0078 24.0923 40.4747 24.3348C40.4747 24.3348 39.8348 24.0848 39.6398 23.9735L39.8375 23.8151H39.8348Z" fill="#842852"/>
<path d="M47.6675 24.5848C47.6675 24.5848 47.5494 24.7481 47.2692 24.9164C47.2692 24.9164 47.7581 24.857 47.8597 24.8322L47.6675 24.5848V24.5848Z" fill="#842852"/>
<path d="M59.3506 21.8204L59.3451 21.8278C58.664 22.4787 57.7989 23.283 57.678 23.3275C57.4721 23.4018 55.448 24.0824 55.448 24.0824C55.448 24.0824 54.5307 25.0079 53.5502 25.6663H52.9076C52.9076 25.6663 54.1901 20.7265 54.0363 16.6554C53.8853 12.5917 51.9601 9.12696 51.1416 7.38963C51.1773 7.49358 51.9903 8.288 52.0205 9.40414L47.456 9.13686C47.456 9.13686 47.9146 6.16459 46.9644 4.99647C46.9644 4.99647 47.4258 7.62722 47.1813 9.18389L43.7511 8.79534C43.7511 8.79534 43.7127 4.9247 42.5207 3.61057L42.0401 3.58582C42.0401 3.58582 39.9446 5.7513 40.1067 9.32248L37.9453 9.58233C37.9453 9.58233 37.7805 6.98624 38.9669 4.74404C38.9669 4.74652 38.9642 4.74652 38.9614 4.74899C38.9587 4.75641 38.9477 4.76384 38.9449 4.77126C38.8735 4.87273 38.6126 5.23653 38.3078 5.77109C38.3023 5.77852 38.2968 5.78594 38.2968 5.79337C37.7475 6.76598 37.0609 8.288 37.0884 9.80754H33.8614L33.6966 8.13456L33.4302 9.80754L32.4305 9.92138C32.4305 9.92138 31.8895 12.1487 31.1644 15.3388C30.4531 18.4645 32.2547 24.461 33.941 25.597C33.9767 25.6192 34.0097 25.644 34.0454 25.6613H32.664C32.664 25.6613 32.0131 25.3792 31.2523 24.8941C31.2386 24.8892 31.2303 24.8842 31.2194 24.8768C31.0793 24.7877 30.9337 24.6887 30.7882 24.5897C30.7827 24.5848 30.7717 24.5773 30.7635 24.5699C30.357 24.2779 29.945 23.9339 29.6072 23.5552C29.2777 23.1815 29.0168 22.7707 28.8959 22.3351C28.9563 22.6049 29.2392 23.7903 29.8297 24.8842C29.8297 24.8842 28.072 23.0429 27.2755 22.1569C26.8306 21.662 25.2679 20.5706 24.0485 18.9446V18.9372C23.8179 18.6402 23.6091 18.3259 23.4196 17.9918C23.0763 17.3978 22.8044 16.747 22.6479 16.0441C22.6479 16.0441 25.2844 14.2994 27.0009 11.1588C27.726 9.82982 28.2642 8.36967 28.8987 7.01841C28.9042 7.00603 28.9096 6.99366 28.9151 6.97881C28.9316 6.94664 28.9453 6.91199 28.9646 6.87734C29.036 6.72885 29.1074 6.58284 29.1815 6.43435C29.242 6.31556 29.3051 6.19924 29.3683 6.08787C29.5029 5.82307 29.6484 5.56568 29.8077 5.31573C29.8599 5.23406 29.9121 5.15239 29.9698 5.07319C29.989 5.03854 30.0055 5.0138 30.0192 4.99647C30.0219 4.99152 30.0219 4.98905 30.0247 4.9841H30.0274L30.0302 4.97667L30.0329 4.97172C30.7058 3.99664 31.5379 3.1849 32.6969 2.66766C34.5068 1.86086 36.1711 0.638298 37.6761 0.734816C37.7338 0.737291 37.7887 0.739766 37.8436 0.744715C39.5052 0.870932 40.9663 1.24711 42.1994 1.22731C43.0151 1.21493 44.2702 1.14069 45.6571 1.10357H45.6626C46.9369 1.07139 48.3184 1.06644 49.5735 1.17534C49.5844 1.17781 49.5927 1.18029 49.6037 1.18029C50.9878 1.29908 52.2182 2.65281 52.9625 3.1354C53.553 3.52147 54.0665 4.01397 54.5279 4.58318C54.5334 4.58813 54.5389 4.5906 54.5389 4.59555C55.0113 5.18703 55.4205 5.85524 55.7803 6.56057C55.783 6.56304 55.783 6.56799 55.7858 6.57294C57.0958 9.12696 57.7742 12.1512 58.5679 13.6262C59.7928 15.903 61.5999 15.6407 61.4159 17.0712C61.3966 17.2345 61.6438 18.5833 61.5367 18.7912C61.3362 19.1847 61.0067 19.6376 60.6222 20.1004" fill="url(#paint24_linear_1_25)"/>
<path d="M42.0809 18.5275C42.4904 16.2541 40.7773 14.1121 38.2545 13.7431C35.7317 13.3741 33.3546 14.9178 32.9451 17.1911C32.5356 19.4645 34.2488 21.6065 36.7715 21.9755C39.2943 22.3445 41.6714 20.8008 42.0809 18.5275Z" stroke="#231F20" stroke-miterlimit="10"/>
<path d="M51.3527 22.2343C53.8402 21.7053 55.3807 19.4593 54.7936 17.2179C54.2065 14.9764 51.7141 13.5882 49.2267 14.1172C46.7392 14.6462 45.1987 16.8922 45.7858 19.1337C46.3729 21.3752 48.8653 22.7634 51.3527 22.2343Z" stroke="#231F20" stroke-miterlimit="10"/>
<path d="M42.139 17.8582L44.0999 17.2964L45.6626 18.1725" stroke="#231F20" stroke-miterlimit="10"/>
<path d="M32.9441 17.1875L30.7277 14.48" stroke="#231F20" stroke-miterlimit="10"/>
<defs>
<linearGradient id="paint0_linear_1_25" x1="51.5189" y1="34.1445" x2="29.0725" y2="31.9827" gradientUnits="userSpaceOnUse">
<stop stop-color="#F9AF9C"/>
<stop offset="0.2" stop-color="#F69B8E"/>
<stop offset="0.47" stop-color="#F48781"/>
<stop offset="0.73" stop-color="#F37B79"/>
<stop offset="1" stop-color="#F37777"/>
</linearGradient>
<linearGradient id="paint1_linear_1_25" x1="54.2889" y1="17.0889" x2="28.5676" y2="14.6118" gradientUnits="userSpaceOnUse">
<stop stop-color="#F8A795"/>
<stop offset="0.43" stop-color="#F8A997"/>
<stop offset="0.52" stop-color="#F7A290"/>
<stop offset="0.76" stop-color="#F69684"/>
<stop offset="1" stop-color="#F69280"/>
</linearGradient>
<linearGradient id="paint2_linear_1_25" x1="49.2589" y1="19.4993" x2="49.7291" y2="16.5283" gradientUnits="userSpaceOnUse">
<stop stop-color="#E6DBEC"/>
<stop offset="1" stop-color="#B8C1E2"/>
</linearGradient>
<linearGradient id="paint3_linear_1_25" x1="49.7019" y1="19.5398" x2="49.8688" y2="17.4566" gradientUnits="userSpaceOnUse">
<stop stop-color="#57345B"/>
<stop offset="1" stop-color="#301138"/>
</linearGradient>
<linearGradient id="paint4_linear_1_25" x1="49.7075" y1="19.483" x2="49.8353" y2="17.888" gradientUnits="userSpaceOnUse">
<stop stop-color="#A093B6"/>
<stop offset="0.99" stop-color="#734B61"/>
</linearGradient>
<linearGradient id="paint5_linear_1_25" x1="46.7935" y1="16.9647" x2="52.2575" y2="17.5037" gradientUnits="userSpaceOnUse">
<stop stop-color="#F7A190"/>
<stop offset="0.43" stop-color="#F3A592"/>
<stop offset="0.51" stop-color="#F39F8D"/>
<stop offset="0.76" stop-color="#F49383"/>
<stop offset="1" stop-color="#F58F80"/>
</linearGradient>
<linearGradient id="paint6_linear_1_25" x1="37.2205" y1="18.9323" x2="37.0721" y2="15.4402" gradientUnits="userSpaceOnUse">
<stop stop-color="#E6DBEC"/>
<stop offset="1" stop-color="#B8C1E2"/>
</linearGradient>
<linearGradient id="paint7_linear_1_25" x1="38.1263" y1="18.7916" x2="38.2031" y2="16.5504" gradientUnits="userSpaceOnUse">
<stop stop-color="#57345B"/>
<stop offset="1" stop-color="#301138"/>
</linearGradient>
<linearGradient id="paint8_linear_1_25" x1="38.1325" y1="18.6432" x2="38.189" y2="16.9957" gradientUnits="userSpaceOnUse">
<stop stop-color="#A093B6"/>
<stop offset="0.99" stop-color="#734B61"/>
</linearGradient>
<linearGradient id="paint9_linear_1_25" x1="40.3833" y1="16.2388" x2="33.9855" y2="15.9686" gradientUnits="userSpaceOnUse">
<stop stop-color="#F7A190"/>
<stop offset="0.43" stop-color="#F3A592"/>
<stop offset="0.51" stop-color="#F39F8D"/>
<stop offset="0.76" stop-color="#F49383"/>
<stop offset="1" stop-color="#F58F80"/>
</linearGradient>
<linearGradient id="paint10_linear_1_25" x1="44.1468" y1="22.4233" x2="44.2721" y2="20.2432" gradientUnits="userSpaceOnUse">
<stop stop-color="#F37B7F"/>
<stop offset="0.4" stop-color="#F3817F"/>
<stop offset="1" stop-color="#F48680"/>
</linearGradient>
<linearGradient id="paint11_linear_1_25" x1="45.6519" y1="21.803" x2="45.721" y2="20.6018" gradientUnits="userSpaceOnUse">
<stop stop-color="#FBE3D4"/>
<stop offset="0.99" stop-color="#AE7CB7"/>
</linearGradient>
<linearGradient id="paint12_linear_1_25" x1="42.7801" y1="21.6411" x2="42.8492" y2="20.4398" gradientUnits="userSpaceOnUse">
<stop stop-color="#FBE3D4"/>
<stop offset="0.99" stop-color="#AE7CB7"/>
</linearGradient>
<linearGradient id="paint13_linear_1_25" x1="50.8837" y1="12.7735" x2="50.7492" y2="14.4944" gradientUnits="userSpaceOnUse">
<stop stop-color="#31111B"/>
<stop offset="1" stop-color="#1A0F21"/>
</linearGradient>
<linearGradient id="paint14_linear_1_25" x1="54.8981" y1="13.9122" x2="48.8344" y2="13.3282" gradientUnits="userSpaceOnUse">
<stop stop-color="#31111B"/>
<stop offset="1" stop-color="#1A0F21"/>
</linearGradient>
<linearGradient id="paint15_linear_1_25" x1="36.6877" y1="11.5837" x2="36.5531" y2="13.3046" gradientUnits="userSpaceOnUse">
<stop stop-color="#31111B"/>
<stop offset="1" stop-color="#1A0F21"/>
</linearGradient>
<linearGradient id="paint16_linear_1_25" x1="38.5773" y1="12.6358" x2="32.5136" y2="12.0518" gradientUnits="userSpaceOnUse">
<stop stop-color="#31111B"/>
<stop offset="1" stop-color="#1A0F21"/>
</linearGradient>
<linearGradient id="paint17_linear_1_25" x1="28.9876" y1="25.2822" x2="29.1395" y2="16.4208" gradientUnits="userSpaceOnUse">
<stop stop-color="#F7A190"/>
<stop offset="0.43" stop-color="#F3A592"/>
<stop offset="0.51" stop-color="#F39F8D"/>
<stop offset="0.76" stop-color="#F49383"/>
<stop offset="1" stop-color="#F58F80"/>
</linearGradient>
<linearGradient id="paint18_linear_1_25" x1="29.0363" y1="22.9761" x2="29.1409" y2="16.8763" gradientUnits="userSpaceOnUse">
<stop stop-color="#F7A190"/>
<stop offset="0.43" stop-color="#F3A592"/>
<stop offset="0.51" stop-color="#F39F8D"/>
<stop offset="0.76" stop-color="#F49383"/>
<stop offset="1" stop-color="#F58F80"/>
</linearGradient>
<linearGradient id="paint19_linear_1_25" x1="30.1654" y1="20.7553" x2="30.2109" y2="18.1051" gradientUnits="userSpaceOnUse">
<stop stop-color="#F7A190"/>
<stop offset="0.43" stop-color="#F3A592"/>
<stop offset="0.51" stop-color="#F39F8D"/>
<stop offset="0.76" stop-color="#F49383"/>
<stop offset="1" stop-color="#F58F80"/>
</linearGradient>
<linearGradient id="paint20_linear_1_25" x1="27.1841" y1="20.8764" x2="31.3492" y2="20.9643" gradientUnits="userSpaceOnUse">
<stop stop-color="#F7A190"/>
<stop offset="0.43" stop-color="#F3A592"/>
<stop offset="0.51" stop-color="#F39F8D"/>
<stop offset="0.76" stop-color="#F49383"/>
<stop offset="1" stop-color="#F58F80"/>
</linearGradient>
<linearGradient id="paint21_linear_1_25" x1="55.7034" y1="64.9418" x2="67.2711" y2="64.9418" gradientUnits="userSpaceOnUse">
<stop stop-color="#F8A795"/>
<stop offset="0.43" stop-color="#F8A997"/>
<stop offset="0.52" stop-color="#F7A290"/>
<stop offset="0.76" stop-color="#F69684"/>
<stop offset="1" stop-color="#F69280"/>
</linearGradient>
<linearGradient id="paint22_linear_1_25" x1="23.1834" y1="61.4449" x2="66.1012" y2="61.4449" gradientUnits="userSpaceOnUse">
<stop stop-color="#F8A795"/>
<stop offset="0.43" stop-color="#F8A997"/>
<stop offset="0.52" stop-color="#F7A290"/>
<stop offset="0.76" stop-color="#F69684"/>
<stop offset="1" stop-color="#F69280"/>
</linearGradient>
<linearGradient id="paint23_linear_1_25" x1="62.2453" y1="56.5818" x2="70.4899" y2="56.5818" gradientUnits="userSpaceOnUse">
<stop stop-color="#F8A795"/>
<stop offset="0.43" stop-color="#F8A997"/>
<stop offset="0.52" stop-color="#F7A290"/>
<stop offset="0.76" stop-color="#F69684"/>
<stop offset="1" stop-color="#F69280"/>
</linearGradient>
<linearGradient id="paint24_linear_1_25" x1="42.106" y1="25.6663" x2="42.106" y2="0.729865" gradientUnits="userSpaceOnUse">
<stop stop-color="#31111B"/>
<stop offset="1" stop-color="#1A0F21"/>
</linearGradient>
</defs>
</svg>
