<svg width="115" height="257" viewBox="0 0 115 257" fill="none" xmlns="http://www.w3.org/2000/svg">
<path d="M63.8836 37.204C63.5757 36.3956 63.5687 29.6419 63.5687 29.6419L46.7737 29.1545C46.7737 29.1545 48.1765 43.9083 47.9736 44.6056" fill="url(#paint0_linear_1_115)"/>
<g style="mix-blend-mode:multiply" opacity="0.6">
<path d="M46.6478 31.9744C46.6478 31.9744 48.6173 32.4619 49.0931 33.2116C49.5688 33.9613 52.6298 39.6012 55.0436 39.6907C57.4574 39.7802 59.0211 36.7813 60.2455 36.0902C61.4699 35.3991 63.6878 35.3497 63.6878 35.3497L63.5688 29.6388L46.7738 29.1514L46.6443 31.9744H46.6478Z" fill="#8D307F"/>
</g>
<path style="mix-blend-mode:multiply" opacity="0.6" d="M58.1955 33.0357L57.5728 38.6571C57.5728 38.6571 59.0701 37.1762 59.8362 36.0964C60.6023 35.0165 62.0296 30.7866 62.0296 30.7866L58.192 33.0357H58.1955Z" fill="url(#paint1_linear_1_115)"/>
<path d="M66.9621 18.0443C66.9621 18.0443 68.4174 16.0913 69.4039 16.0944C70.0056 16.0944 71.4538 17.2082 71.4363 18.2696C71.4154 19.6888 69.9881 21.3024 69.6347 22.1323C69.2779 22.9592 68.3579 24.039 67.7457 24.1439C67.1335 24.2488 66.3359 23.2276 66.3359 23.2276C66.3359 23.2276 66.6333 19.334 66.9621 18.0443Z" fill="url(#paint2_linear_1_115)"/>
<path style="mix-blend-mode:multiply" opacity="0.6" d="M67.0706 20.1238C67.0706 20.1238 69.4599 17.5229 70.3275 17.5229C71.195 17.5229 71.195 19.0039 70.8452 19.8461C70.6038 20.4293 70.1281 21.2746 70.1281 21.2746C70.1281 21.2746 70.5024 20.3676 70.5478 19.6888C70.6178 18.6429 70.3554 17.8839 70.0546 17.887C69.5054 17.8901 69.0716 18.5534 69.0051 18.7879C68.9352 19.0224 69.4389 20.0529 69.306 20.7717C69.173 21.4906 68.6833 21.7652 68.5224 21.685C68.3579 21.6078 68.6098 20.7964 68.4629 20.5095C68.316 20.2225 67.8857 19.806 67.6338 19.8955C67.3819 19.9881 67.0706 20.1207 67.0706 20.1207V20.1238Z" fill="url(#paint3_linear_1_115)"/>
<path style="mix-blend-mode:multiply" opacity="0.6" d="M67.0706 20.1238C67.0706 20.1238 67.6583 19.8122 67.8367 19.914C68.0151 20.0127 68.4699 20.3737 68.4909 20.5989C68.5084 20.8242 68.3474 21.4721 68.4909 21.5832C68.6343 21.6942 69.1555 20.9692 69.1765 20.3244C69.201 19.6826 68.7917 18.9391 68.7917 18.8527C68.7917 18.7663 68.8862 18.3529 68.8862 18.3529C68.8862 18.3529 67.4974 19.5098 67.0706 20.1207V20.1238Z" fill="url(#paint4_linear_1_115)"/>
<path d="M44.1291 18.0443C44.1291 18.0443 42.6738 16.0913 41.6873 16.0944C41.0856 16.0944 39.6373 17.2082 39.6548 18.2696C39.6758 19.6888 41.1031 21.3024 41.4564 22.1323C41.8132 22.9592 42.7333 24.039 43.3455 24.1439C43.9577 24.2488 44.7553 23.2276 44.7553 23.2276C44.7553 23.2276 44.4579 19.334 44.1291 18.0443Z" fill="url(#paint5_linear_1_115)"/>
<path style="mix-blend-mode:multiply" opacity="0.6" d="M44.0206 20.1238C44.0206 20.1238 41.6313 17.5229 40.7637 17.5229C39.8962 17.5229 39.8962 19.0039 40.246 19.8461C40.4874 20.4293 40.9631 21.2746 40.9631 21.2746C40.9631 21.2746 40.5888 20.3676 40.5434 19.6888C40.4734 18.6429 40.7358 17.8839 41.0366 17.887C41.5858 17.8901 42.0196 18.5534 42.0861 18.7879C42.156 19.0224 41.6523 20.0529 41.7852 20.7717C41.9182 21.4906 42.4079 21.7652 42.5688 21.685C42.7333 21.6078 42.4814 20.7964 42.6283 20.5095C42.7752 20.2225 43.2055 19.806 43.4574 19.8955C43.7093 19.9881 44.0206 20.1207 44.0206 20.1207V20.1238Z" fill="url(#paint6_linear_1_115)"/>
<path style="mix-blend-mode:multiply" opacity="0.6" d="M44.0206 20.1238C44.0206 20.1238 43.4329 19.8122 43.2545 19.914C43.0761 20.0127 42.6213 20.3737 42.6003 20.5989C42.5794 20.8242 42.7438 21.4721 42.6003 21.5832C42.4569 21.6942 41.9357 20.9692 41.9147 20.3244C41.8902 19.6826 42.2995 18.9391 42.2995 18.8527C42.2995 18.7663 42.205 18.3529 42.205 18.3529C42.205 18.3529 43.5938 19.5098 44.0206 20.1207V20.1238Z" fill="url(#paint7_linear_1_115)"/>
<path d="M67.2839 18.1122C67.102 19.8708 66.7172 21.5122 66.6263 23.351C66.5353 25.1899 66.3639 26.6862 66.0386 27.3712C65.8916 27.6797 65.6328 27.9975 65.3074 28.3214C64.3804 29.2439 62.9076 30.2096 61.9106 31.1167C61.5328 31.4592 61.141 31.7492 60.7737 31.9929C60.7737 31.9929 60.7702 31.9929 60.7667 31.996C60.0251 32.4835 59.3639 32.7735 59.0526 32.8846C58.101 33.2301 55.6348 33.2301 55.6348 33.2301C55.6348 33.2301 53.1685 33.2301 52.217 32.8846C51.7482 32.7149 50.4959 32.1472 49.3589 31.1167C48.18 30.0461 46.34 28.8922 45.5214 27.8309C45.3989 27.6766 45.301 27.5223 45.2275 27.3712C44.9022 26.6862 44.7273 25.1899 44.6398 23.351C44.5488 21.5122 44.164 19.8708 43.9821 18.1122C43.8002 16.3505 43.5763 10.254 44.164 8.85326C44.7552 7.45254 51.7377 3.69466 55.6383 3.69466C58.3739 3.69466 62.6348 5.54584 65.129 7.13476C66.189 7.81044 66.9341 8.43675 67.109 8.85326C67.7002 10.254 67.4728 16.3536 67.2909 18.1122H67.2839Z" fill="url(#paint8_linear_1_115)"/>
<path d="M53.4624 1.60902C53.4624 1.60902 55.0121 0.806845 57.2405 0.887063C59.4724 0.96728 62.0016 2.02862 62.0016 2.02862L55.8762 4.94113L53.1125 4.04948L53.4589 1.60902H53.4624Z" fill="url(#paint9_linear_1_115)"/>
<path d="M68.8863 10.2879L68.2706 9.89919L67.2281 17.2885C67.2281 17.2885 67.4765 14.7894 67.0917 13.4072C66.7069 12.025 66.7978 9.26053 66.7978 9.26053C66.7978 9.26053 64.4435 6.73677 62.2501 6.15673C62.2501 6.15673 59.378 6.45601 55.0647 6.59793C50.7514 6.73677 48.2746 6.67815 48.2746 6.67815C48.2746 6.67815 45.3956 8.07887 44.486 9.48267C44.486 9.48267 44.5105 11.6054 44.4405 12.7253C44.3706 13.8453 43.7444 17.6834 43.7444 17.6834C43.7444 17.6834 43.7444 17.6679 43.7409 17.6433C43.7059 17.162 43.3491 12.6204 42.9713 10.7446C42.9573 10.6767 42.9433 10.6119 42.9328 10.544C42.8908 10.3034 42.8558 10.0627 42.8313 9.82205C42.8313 9.81588 42.8313 9.80971 42.8278 9.80046C42.7369 8.93658 42.7474 8.08195 42.7754 7.45255C42.7754 7.40936 42.7789 7.36617 42.7824 7.32297C42.7859 7.28286 42.7894 7.24275 42.7894 7.20265C42.7894 7.16871 42.7929 7.13168 42.7964 7.10083C42.7964 7.06689 42.7999 7.03295 42.8034 7.0021C42.8104 6.92805 42.8139 6.85709 42.8209 6.79539C42.8243 6.76145 42.8278 6.72751 42.8313 6.69974C42.8313 6.69357 42.8313 6.6874 42.8313 6.68432C42.8313 6.65346 42.8383 6.62878 42.8383 6.60101C42.8453 6.54548 42.8488 6.50229 42.8523 6.47452C42.8523 6.46526 42.8523 6.45909 42.8523 6.45601C42.8523 6.43749 42.8558 6.43132 42.8558 6.43132L42.9328 6.45292L43.4645 7.36C43.4645 7.36 43.4645 7.35999 43.4715 7.35074C43.4715 7.35074 43.4785 7.34457 43.482 7.34148C43.482 7.34148 43.4855 7.3384 43.489 7.33531C43.4995 7.32606 43.51 7.3168 43.524 7.30137C43.6779 7.14094 44.1712 6.64112 44.8778 5.99013C44.9163 5.9531 44.9548 5.91608 44.9933 5.88214C45.0038 5.8698 45.0143 5.86055 45.0247 5.85129C45.0877 5.79267 45.1647 5.72171 45.2521 5.64766C45.2731 5.62915 45.2976 5.60755 45.3221 5.58596C46.0043 4.97198 46.8368 4.27162 47.7324 3.60829C47.7394 3.60212 47.7429 3.59903 47.7499 3.59594C47.7814 3.57435 47.8093 3.54967 47.8443 3.52807C48.1662 3.2905 48.495 3.0591 48.8308 2.84005C51.6574 0.979621 54.8933 0.0170117 54.8933 0.0170117H56.3591C56.3591 0.0170117 54.6589 2.4945 54.2846 4.0464C54.3336 3.94767 55.9847 0.726628 57.3351 0.0170117C57.3351 0.0170117 58.6434 -0.134167 60.1057 0.467464C60.1057 0.467464 57.6429 2.29704 57.0342 3.74095C57.1357 3.66691 61.1901 0.674178 64.1496 2.23842C64.0692 2.22299 63.2296 2.08107 62.4285 2.16437C62.4285 2.16437 63.2821 2.47907 64.6219 3.80266C64.8178 3.99703 65.0417 4.2346 65.2761 4.50302C66.6474 6.058 68.512 8.6805 68.8863 10.2879Z" fill="url(#paint10_linear_1_115)"/>
<path d="M55.4704 6.57943C55.4704 6.57943 59.217 -0.100215 64.153 2.24152C64.153 2.24152 59.4689 1.92065 56.1595 6.55475L55.4704 6.58252V6.57943Z" fill="url(#paint11_linear_1_115)"/>
<path d="M57.3314 0.0200882C57.3314 0.0200882 54.3124 2.81536 53.8682 6.58249H55.4669C55.4669 6.58249 55.8202 2.90792 59.0316 0.1435C59.0316 0.1435 58.3074 0.0200882 57.3314 0.0200882Z" fill="url(#paint12_linear_1_115)"/>
<path d="M54.8932 0.0200882C54.8932 0.0200882 52.4864 2.92334 52.294 6.6658C52.294 6.6658 52.7487 3.23187 55.4704 0.0200882H54.8932Z" fill="url(#paint13_linear_1_115)"/>
<path d="M43.1915 7.27051C43.1915 7.27051 43.9682 8.39356 44.6993 9.18956L44.4859 9.47649V10.2879C44.4859 10.2879 43.4504 9.85598 42.8557 8.84092V6.42823L43.1915 7.2736V7.27051Z" fill="url(#paint14_linear_1_115)"/>
<path d="M47.337 3.87672C47.337 3.87672 46.1615 5.10775 45.8642 8.13133L46.4379 7.73025C46.4379 7.73025 46.34 5.15403 48.1975 3.26275L47.337 3.87672Z" fill="url(#paint15_linear_1_115)"/>
<path d="M58.7027 6.42515C58.7027 6.42515 61.0291 3.83043 64.9716 3.7718L64.7687 3.95692L66.175 4.25311C66.175 4.25311 63.9851 4.66345 62.2465 6.15365L58.6992 6.42515H58.7027Z" fill="url(#paint16_linear_1_115)"/>
<g style="mix-blend-mode:multiply" opacity="0.6">
<path d="M58.9791 6.15365H62.25C62.25 6.15365 59.3779 6.45292 55.0646 6.59484C50.7512 6.73368 48.2745 6.67506 48.2745 6.67506C48.2745 6.67506 45.3954 8.07578 44.4859 9.47958C44.4859 9.47958 44.5104 11.6023 44.4404 12.7222C44.3704 13.8422 43.7442 17.6803 43.7442 17.6803C43.7442 17.6803 43.7442 17.6648 43.7407 17.6402C43.6883 17.1527 43.1915 12.5649 42.9327 10.5409C42.8942 10.2324 42.8592 9.98557 42.8312 9.81897C42.8312 9.8128 42.8312 9.80663 42.8277 9.79737C42.7088 9.0353 42.7368 8.03259 42.7822 7.31988C42.7857 7.27978 42.7892 7.23967 42.7892 7.19956C42.7892 7.16562 42.7927 7.1286 42.7962 7.09774C42.7962 7.06381 42.7997 7.02987 42.8032 6.99901C42.8102 6.92497 42.8137 6.85401 42.8207 6.7923C42.8242 6.75836 42.8277 6.72442 42.8312 6.69666C42.8312 6.69049 42.8312 6.68431 42.8312 6.68123C42.8312 6.65038 42.8382 6.62569 42.8382 6.59793C42.8452 6.54239 42.8487 6.4992 42.8522 6.47143C42.8522 6.46217 42.8522 6.456 42.8522 6.45292C42.8522 6.43441 42.8557 6.42824 42.8557 6.42824L42.9327 6.44983L43.4644 7.35691C43.4644 7.35691 43.4644 7.35691 43.4714 7.34765C43.4714 7.34765 43.4784 7.34148 43.4819 7.3384C43.4819 7.3384 43.4854 7.33531 43.4889 7.33223C43.6288 7.19647 44.3879 6.44675 44.9931 5.87906C45.0036 5.86671 45.0141 5.85746 45.0246 5.8482C45.0876 5.78958 45.1645 5.71862 45.252 5.64457C45.9586 5.02443 47.3334 3.92607 47.7287 3.60828C47.7357 3.60211 47.7392 3.59903 47.7462 3.59594C47.8057 3.54966 47.8407 3.5219 47.8407 3.5219V3.53115C47.6763 5.07997 48.2045 6.05492 48.2045 6.05492C51.3074 6.28631 58.9826 6.15673 58.9826 6.15673L58.9791 6.15365Z" fill="#8D307F"/>
</g>
<g style="mix-blend-mode:multiply" opacity="0.6">
<path d="M68.8861 10.2879L68.2704 9.89917L67.228 17.2884C67.228 17.2884 67.4763 14.7894 67.0915 13.4071C66.7067 12.0249 66.7977 9.26052 66.7977 9.26052C66.7977 9.26052 64.4434 6.73675 62.25 6.15672L62.4424 5.99937L65.2725 4.50301H65.276C66.6473 6.06108 68.5118 8.68357 68.8861 10.291V10.2879Z" fill="#8D307F"/>
</g>
<path d="M64.7967 7.49573C64.7967 7.49573 65.5698 7.23348 66.6368 7.27359C67.7037 7.3137 68.204 8.12513 68.204 8.12513C68.204 8.12513 66.9376 7.74872 65.234 7.83203L64.7967 7.49573Z" fill="url(#paint17_linear_1_115)"/>
<path d="M45.5808 8.35038C45.5808 8.35038 43.6043 6.66582 44.6992 4.67272C44.6992 4.67272 45.0246 5.8513 45.8851 7.94004L45.5808 8.3473V8.35038Z" fill="url(#paint18_linear_1_115)"/>
<path d="M8.54858 252.829C8.63954 252.224 8.94039 251.514 9.80096 251.15C12.3127 250.092 21.5551 246.784 24.0283 244.958C25.9488 243.539 27.586 240.509 28.2227 239.225L45.6125 239.623C46.7424 243.579 47.6345 251.224 47.8129 252.825H8.54858V252.829Z" fill="#4F6BAF"/>
<path d="M8.54858 256.306H47.8129V252.832H8.54858V256.306Z" fill="#FFEFE6"/>
<path d="M64.5135 239.765C64.7793 239.417 64.8423 237.013 64.8423 235.128L79.0382 232.592C80.6894 235.909 83.327 243.909 84.7123 248.244C85.2721 250.002 85.6289 251.159 85.6289 251.159C85.6289 251.159 84.6774 255.565 75.435 256.296C66.6544 256.991 61.7849 253.887 61.7849 252.603C61.7849 252.233 61.9528 251.082 62.2046 249.614C62.8343 246.001 63.9957 240.447 64.5135 239.762V239.765Z" fill="#FFEFE6"/>
<path d="M64.8424 235.128L79.0382 232.592C80.6894 235.909 83.3271 243.909 84.7124 248.244C82.5505 249.546 81.4835 252.329 75.435 252.819C68.484 253.381 64.2896 250.965 62.2047 249.614C62.8344 246.001 63.9958 240.447 64.5135 239.762C64.7794 239.414 64.8424 237.01 64.8424 235.125V235.128Z" fill="#4F6BAF"/>
<path d="M22.433 239.229C22.9053 223.802 21.8768 187.535 21.6809 185.103C21.4815 182.623 23.3671 156.49 24.7139 138.482C25.4415 128.769 26.0083 121.423 26.0083 121.423H76.7398L76.5824 136.319L77.8662 181.787C77.8662 181.787 84.317 219.979 86.5454 236.328C78.5274 239.256 69.0367 239.713 60.3785 238.815L54.1061 183.996L48.1486 140.617L47.6554 137.908L47.505 140.632L48.0997 183.588L50.1251 241.654C40.7464 243.354 31.4935 241.681 22.433 239.225V239.229Z" fill="#2A2A2C"/>
<path d="M24.7139 138.482C29.524 139.623 37.2761 140.882 47.5015 140.635L47.6519 137.911L48.1451 140.62C56.1981 140.379 65.7518 139.201 76.5789 136.322L76.5964 134.468L76.6068 133.286L76.6243 131.509L76.6418 130.284L76.7328 121.426H26.0117C26.0117 121.426 25.8053 124.098 25.48 128.35C25.4485 128.763 25.4205 129.195 25.3856 129.639C25.3261 130.392 25.2666 131.188 25.2037 132.018C25.1757 132.404 25.1442 132.802 25.1162 133.203C24.9903 134.853 24.8573 136.627 24.7174 138.485L24.7139 138.482Z" fill="#2A2A2C"/>
<path d="M68.6658 121.426C69.4459 125.73 72.2025 129.726 76.6313 131.509L76.6488 130.284C72.9476 128.578 70.6143 125.162 69.9042 121.426H68.6693H68.6658Z" fill="#2A2A2C"/>
<path d="M63.6248 121.426C65.339 127.393 70.2085 132.225 76.5963 134.465L76.6068 133.283C70.8837 131.132 66.5704 126.804 64.9017 121.426H63.6213H63.6248Z" fill="#2A2A2C"/>
<path d="M25.382 129.639C28.8732 128.115 31.4409 124.851 32.1791 121.426H30.9092C30.2341 124.234 28.2296 126.912 25.4764 128.35C25.445 128.763 25.417 129.195 25.382 129.639Z" fill="#2A2A2C"/>
<path d="M25.1127 133.203C30.8778 131.401 34.9602 126.807 35.5864 121.426H34.369C33.7813 126.178 30.2061 130.272 25.1966 132.018C25.1687 132.404 25.1372 132.802 25.1092 133.203H25.1127Z" fill="#2A2A2C"/>
<path d="M25.5045 124.801V124.811L40.288 125.625L43.6324 121.423L50.1251 126.168L76.4284 127.621H76.4949C76.4949 127.621 91.2504 50.4769 73.0176 39.0706C71.5623 38.1635 69.9251 37.6698 68.0781 37.6698L64.0481 33.915L55.0016 40.0054L49.4674 44.007L47.5469 37.6667C47.5469 37.6667 45.9622 39.7092 45.42 41.3475C45.42 41.3475 45.3815 41.3537 45.308 41.3629C44.5069 41.4802 39.5289 42.3132 35.2016 45.636C35.0512 45.7533 34.8972 45.8705 34.7503 45.9939C33.449 47.0553 32.2246 48.3542 31.2066 49.9369C26.1131 57.8785 25.5324 121.583 25.508 124.69C25.5045 124.743 25.5045 124.777 25.5045 124.798V124.801Z" fill="#3C3148"/>
<path d="M49.4639 44.0132C49.4639 44.0132 42.5549 110.85 43.6289 121.423C43.6289 121.423 41.0262 77.1492 49.4639 44.0132Z" fill="#261D30"/>
<path d="M47.5434 37.6729L49.464 44.0132L44.9897 49.94C45.0247 45.5095 45.2066 41.9831 45.4165 41.3506C45.9587 39.7154 47.5399 37.6698 47.5399 37.6698L47.5434 37.6729Z" fill="#261D30"/>
<path d="M49.464 44.0132L55.8343 51.06L68.0746 37.6729L64.0446 33.9181L49.464 44.0132Z" fill="#261D30"/>
<path d="M69.7328 119.365C69.7328 119.365 62.5964 117.249 61.6518 119.023C60.7038 120.797 66.301 122.938 66.301 122.938L69.7328 119.365Z" fill="#F69787"/>
<path d="M54.1726 129.34C55.2571 130.506 63.4779 123.043 63.4779 123.043L66.4829 124.197L63.3765 127.6L62.0821 133.863C62.0821 133.863 63.2331 134.573 64.6953 135.369C64.8772 135.47 65.0661 135.569 65.255 135.668C66.1366 136.134 67.0916 136.603 67.9557 136.951C68.0361 136.988 68.1236 137.019 68.2041 137.053C68.6413 137.217 69.0471 137.349 69.4005 137.433C69.7958 137.522 70.1246 137.547 70.366 137.488L72.5524 132.916C72.5524 132.916 80.0001 131.006 80.8257 130.265C81.1511 129.969 81.5988 128.208 82.0186 126.19C82.218 125.221 82.4139 124.194 82.5853 123.24L79.5419 121.769L72.6468 118.436C71.8842 118.489 70.8767 118.578 69.7573 118.708C69.2081 118.77 68.6308 118.844 68.0431 118.93C65.9162 119.245 63.6528 119.717 62.0052 120.417C61.3055 120.713 60.7213 121.05 60.3085 121.435C57.44 124.092 53.0881 128.177 54.1691 129.34H54.1726Z" fill="url(#paint19_linear_1_115)"/>
<path d="M67.9591 136.948C68.0396 136.985 68.1271 137.016 68.2075 137.05C68.2705 136.85 68.3475 136.587 68.4454 136.273C68.6658 135.56 68.9841 134.6 69.3514 133.57C69.7293 132.542 70.1386 131.632 70.5304 130.981C70.6318 130.818 70.7263 130.67 70.8067 130.54C70.9012 130.417 70.9816 130.306 71.0516 130.219C71.181 130.037 71.258 129.929 71.258 129.929C71.258 129.929 71.1356 129.991 70.9187 130.117C70.8102 130.179 70.6773 130.256 70.5269 130.352C70.3869 130.457 70.233 130.577 70.0616 130.716C69.3934 131.274 68.6378 132.215 68.225 133.345C67.8227 134.474 67.7912 135.52 67.8577 136.257C67.8857 136.529 67.9242 136.76 67.9591 136.942V136.948Z" fill="#F47D6F"/>
<path d="M64.6988 135.365C64.8807 135.467 65.0696 135.566 65.2585 135.665C65.276 135.625 65.2865 135.581 65.3005 135.541C65.5244 134.829 65.8392 133.869 66.21 132.839C66.5843 131.808 66.9936 130.901 67.3889 130.25C67.4904 130.087 67.5778 129.938 67.6618 129.812C67.7563 129.685 67.8402 129.577 67.9032 129.488C68.0361 129.303 68.1131 129.201 68.1131 129.201C68.1131 129.201 67.9941 129.263 67.7772 129.386C67.6723 129.448 67.5359 129.525 67.3854 129.624C67.2455 129.726 67.0881 129.849 66.9202 129.988C66.2485 130.549 65.4964 131.493 65.0836 132.62C64.7093 133.665 64.6533 134.644 64.7023 135.365H64.6988Z" fill="#F47D6F"/>
<path d="M69.4039 137.43C69.7992 137.519 70.1281 137.544 70.3694 137.485L72.5558 132.913C72.5558 132.913 80.0036 131.003 80.8292 130.262C81.1545 129.966 81.6023 128.205 82.0221 126.187C82.2215 125.218 82.4174 124.191 82.5888 123.237L79.5453 121.766C79.4299 122.654 79.297 123.561 79.1325 124.425C78.6883 126.828 78.0586 128.902 77.1945 129.349C74.9102 130.531 71.0621 132.194 71.0621 132.194L69.4004 137.43H69.4039Z" fill="#F69787"/>
<path d="M70.1316 117.434L72.1431 118.859L79.5804 123.941L82.7742 126.122C82.7742 126.122 117.848 93.3346 114.755 83.329C111.712 73.4777 76.2535 41.8134 75.1481 40.8322C75.1376 40.823 75.1306 40.8168 75.1271 40.8137C75.1271 40.8076 75.1201 40.8045 75.1201 40.8045C75.1201 40.8045 75.0956 40.9371 75.0501 41.1871C74.5569 43.9823 71.4749 61.2507 70.1281 63.1574C69.355 64.2557 76.5579 70.5868 83.5264 76.3161C89.7462 81.4284 95.7772 86.0625 95.7772 86.0625C91.24 89.515 70.1246 117.434 70.1246 117.434H70.1316Z" fill="#3C3148"/>
<path d="M104.39 82.7829C104.208 82.57 103.83 82.641 103.55 82.7397C101.948 83.2981 100.416 84.017 98.9956 84.8747C98.7157 85.0444 98.2819 85.2789 97.8587 85.5566L82.1306 72.1973L82.1166 75.1437C88.3364 80.253 95.7842 86.0595 95.7842 86.0595C91.247 89.515 70.1281 117.431 70.1281 117.431L72.1431 118.856C77.4954 112.235 91.7752 94.6242 97.4179 88.1914C99.1495 89.1231 101.168 89.6353 103.193 89.6538C102.595 88.395 101.077 87.7101 99.6742 87.1301C101.137 85.9422 102.602 84.7544 104.065 83.5635C104.32 83.3567 104.593 83.0235 104.386 82.7767L104.39 82.7829Z" fill="#3C3148"/>
<path d="M13.593 100.483C13.593 100.483 22.4085 62.7501 25.501 55.6416C26.7429 52.7847 28.5549 50.6126 30.2761 49.033C31.5459 47.8667 32.7668 47.0213 33.6764 46.4691C34.6034 45.9076 35.2016 45.6453 35.2016 45.6453C35.2016 45.6453 35.1911 46.1698 35.1666 47.1046C34.9847 54.9474 34.0962 91.7858 33.5644 92.7607C33.3021 93.242 29.5764 100.486 25.5045 108.419V108.428C25.3925 108.641 25.2806 108.857 25.1721 109.073L12.8163 102.631L13.593 100.486V100.483Z" fill="#3C3148"/>
<path d="M22.7164 105.731C22.559 103.914 29.419 61.8091 32.0497 53.7627C30.1222 67.0016 25.5045 108.415 25.5045 108.415V108.425C25.3926 108.638 25.2806 108.854 25.1722 109.07L22.1882 107.515C22.5485 106.66 22.7479 106.037 22.7199 105.734L22.7164 105.731Z" fill="#261D30"/>
<path d="M1.87735 76.3439L30.1502 75.3042L35.1596 111.482L8.79688 111.282L1.87735 76.3439Z" fill="#EAE2CC"/>
<path d="M0.254259 90.9402C0.579596 91.5141 1.13232 91.9584 1.73402 92.2114C2.42667 92.5076 3.12982 92.8284 3.83996 93.0567C3.90992 93.0783 3.97989 93.0999 4.05335 93.1215C4.38568 93.2233 4.71802 93.3005 5.05035 93.3467C5.17279 93.3622 5.29173 93.3745 5.41067 93.3838C5.81647 93.4085 6.21876 93.3745 6.58258 93.2634C7.18428 93.0845 7.30672 92.3163 6.79947 91.7671C6.16279 91.0791 5.33021 90.5484 4.48713 90.1905C3.9659 89.9714 2.20278 89.447 1.05186 89.4963C0.191291 89.5303 -0.333446 89.8851 0.261256 90.9341L0.254259 90.9402Z" fill="url(#paint20_linear_1_115)"/>
<path d="M2.13277 94.442C2.45811 95.0159 3.00733 95.4571 3.60903 95.7162C4.05681 95.9044 4.51158 96.105 4.96985 96.287C5.14826 96.361 5.33017 96.4289 5.51208 96.4876C5.98084 96.6542 6.4531 96.7868 6.92887 96.8516C7.02332 96.864 7.11427 96.8732 7.20873 96.8794C7.64251 96.9133 8.07279 96.8794 8.4611 96.7652C9.0628 96.5863 9.18174 95.818 8.67099 95.2719C8.03781 94.5808 7.20523 94.0471 6.35865 93.6954C6.17325 93.6182 5.83042 93.501 5.41063 93.3807C5.01533 93.2727 4.55356 93.1616 4.09879 93.0937C4.01133 93.0783 3.92737 93.066 3.84342 93.0567C2.51758 92.8839 1.34917 93.0629 2.13977 94.442H2.13277Z" fill="url(#paint21_linear_1_115)"/>
<path d="M3.01087 97.6353C3.3362 98.2092 3.88543 98.6503 4.48712 98.9095C5.04684 99.1502 5.62405 99.4032 6.19777 99.616C6.37618 99.6808 6.55808 99.7456 6.7365 99.795C7.08982 99.9091 7.44664 99.9986 7.80696 100.048C8.02035 100.076 8.23374 100.091 8.44364 100.088C8.75498 100.088 9.05933 100.045 9.33569 99.9616C9.93739 99.7826 10.0563 99.0175 9.54559 98.4683C8.9124 97.7803 8.07982 97.2435 7.23325 96.8917C7.22275 96.8917 7.21925 96.8856 7.20876 96.8825C6.86943 96.7406 6.08582 96.4999 5.26373 96.3395C5.16928 96.321 5.06783 96.3024 4.96988 96.2901C3.5461 96.0587 2.17129 96.1667 3.00737 97.6353H3.01087Z" fill="url(#paint22_linear_1_115)"/>
<path d="M4.80543 101.035C5.13077 101.609 5.68349 102.056 6.28169 102.309C6.37264 102.35 6.4636 102.387 6.55455 102.427C7.55155 102.856 8.57304 103.306 9.60152 103.445C10.1298 103.519 10.665 103.503 11.1303 103.362C11.732 103.183 11.8509 102.414 11.3401 101.868C10.707 101.18 9.87439 100.647 9.02781 100.292C8.90187 100.233 8.69548 100.162 8.44011 100.085C7.90487 99.9184 7.15975 99.7302 6.4671 99.6438C6.37264 99.6314 6.28519 99.6222 6.19423 99.6129C5.01183 99.5111 4.0778 99.761 4.80193 101.032L4.80543 101.035Z" fill="url(#paint23_linear_1_115)"/>
<path d="M0.254176 90.9402C0.579512 91.5141 1.13223 91.9584 1.73393 92.2113C2.42658 92.5075 3.12973 92.8284 3.83987 93.0567C2.51404 92.8839 1.34563 93.0629 2.13623 94.442C2.46157 95.0159 3.01079 95.4571 3.61249 95.7162C4.06026 95.9044 4.51504 96.105 4.97331 96.287C3.54952 96.0556 2.17471 96.1636 3.01079 97.6322C3.33613 98.2061 3.88535 98.6473 4.48705 98.9064C5.04677 99.1471 5.62398 99.4001 6.19769 99.6129C5.01529 99.5111 4.08125 99.761 4.80539 101.032C5.13073 101.606 5.68345 102.053 6.28165 102.306C6.3726 102.347 6.46356 102.384 6.55451 102.424C6.51953 102.365 6.48805 102.313 6.46006 102.254C6.22918 101.816 6.03327 101.335 6.04727 100.85C6.05426 100.378 6.30964 99.9091 6.73292 99.7919L6.76091 99.7857C6.65946 99.7364 6.56501 99.6932 6.46706 99.6438C5.85137 99.3322 5.23567 98.9434 4.91034 98.314C4.53952 97.5797 4.91034 96.4968 5.66596 96.5832C5.61348 96.5523 5.56101 96.5215 5.51204 96.4906C5.42808 96.4444 5.34762 96.3919 5.26366 96.3395C4.71444 96.0001 4.1827 95.6052 3.85737 95.0375C3.49355 94.4019 3.54252 93.4917 4.04977 93.1277C4.06376 93.1215 4.07776 93.1061 4.09175 93.0999C4.14072 93.0691 4.1932 93.0444 4.24917 93.0259C3.16122 92.4057 2.11874 91.7609 1.49255 90.5761C1.32114 90.2522 1.18821 89.8758 1.04478 89.5056C0.184211 89.5395 -0.340526 89.8943 0.254176 90.9433V90.9402Z" fill="url(#paint24_linear_1_115)"/>
<path d="M66.7977 15.4467C66.7977 15.4467 65.9231 14.1169 65.0451 14.0768C64.8562 14.0675 64.6218 14.0861 64.3559 14.1231C62.4634 14.3977 59.0001 15.6966 59.0001 15.6966C59.0001 15.6966 58.4264 14.3822 58.4894 13.8454L58.6888 13.7683C58.6888 13.7683 58.8952 14.5982 59.0281 14.7185L59.0036 13.6449C59.0036 13.6449 61.7602 13.2777 63.5443 13.0494L63.8417 13.0093C64.0516 12.9815 64.244 12.9568 64.4119 12.9383C64.7792 12.892 65.0136 12.8674 65.0276 12.8674C65.101 12.8859 65.262 12.9352 65.2794 12.9383L65.1815 12.7069C65.1815 12.7069 66.1085 13.5616 66.7907 15.4467H66.7977Z" fill="url(#paint25_linear_1_115)"/>
<g style="mix-blend-mode:multiply" opacity="0.6">
<path d="M66.7977 15.4465C66.7977 15.4465 65.9232 14.1167 65.0451 14.0766C64.8562 14.0674 64.6218 14.0859 64.356 14.1229L63.5479 13.0461L63.8452 13.006C64.3315 13.0801 65.6818 13.9378 65.6818 13.9378C65.311 13.3022 64.4644 12.9536 64.4154 12.9351C64.7828 12.8888 65.0171 12.8641 65.0311 12.8641C65.1046 12.8826 65.2655 12.932 65.283 12.9351L65.1851 12.7037C65.1851 12.7037 66.1121 13.5583 66.7943 15.4434L66.7977 15.4465Z" fill="#B23594"/>
</g>
<path d="M45.5914 15.4467C45.5914 15.4467 46.466 14.1169 47.344 14.0768C47.533 14.0675 47.7673 14.0861 48.0332 14.1231C49.9258 14.3977 53.389 15.6966 53.389 15.6966C53.389 15.6966 53.9627 14.3822 53.8998 13.8454L53.7004 13.7683C53.7004 13.7683 53.494 14.5982 53.361 14.7185L53.3855 13.6449C53.3855 13.6449 50.6289 13.2777 48.8448 13.0494L48.5474 13.0093C48.3376 12.9815 48.1451 12.9568 47.9772 12.9383C47.6099 12.892 47.3755 12.8674 47.3615 12.8674C47.2881 12.8859 47.1272 12.9352 47.1097 12.9383L47.2076 12.7069C47.2076 12.7069 46.2806 13.5616 45.5984 15.4467H45.5914Z" fill="url(#paint26_linear_1_115)"/>
<g style="mix-blend-mode:multiply" opacity="0.6">
<path d="M45.5914 15.4465C45.5914 15.4465 46.4659 14.1167 47.344 14.0766C47.5329 14.0674 47.7673 14.0859 48.0331 14.1229L48.8412 13.0461L48.5439 13.006C48.0576 13.0801 46.7073 13.9378 46.7073 13.9378C47.0781 13.3022 47.9247 12.9536 47.9737 12.9351C47.6064 12.8888 47.372 12.8641 47.358 12.8641C47.2845 12.8826 47.1236 12.932 47.1061 12.9351L47.2041 12.7037C47.2041 12.7037 46.277 13.5583 45.5949 15.4434L45.5914 15.4465Z" fill="#B23594"/>
</g>
<path d="M59.5003 18.4794C59.4864 18.6984 61.6203 18.7138 62.9286 18.5688C64.237 18.4238 64.8422 17.5754 64.8771 17.3471C64.9086 17.1188 64.5553 16.4739 62.7467 16.6189C60.9381 16.7639 59.5388 17.9765 59.5038 18.4763L59.5003 18.4794Z" fill="url(#paint27_linear_1_115)"/>
<path d="M63.4254 17.5846C63.3694 18.2387 62.7222 18.7262 61.9806 18.6768C61.239 18.6274 60.6862 18.0567 60.7422 17.4026C60.7982 16.7485 61.4454 16.261 62.187 16.3104C62.9286 16.3598 63.4813 16.9305 63.4254 17.5846Z" fill="url(#paint28_linear_1_115)"/>
<path d="M63.3449 17.5784C63.2924 18.1924 62.6837 18.6552 61.9841 18.6058C61.2844 18.5565 60.7632 18.0227 60.8192 17.4057C60.8717 16.7917 61.4803 16.3289 62.18 16.3783C62.8761 16.4245 63.4009 16.9614 63.3449 17.5784Z" fill="url(#paint29_linear_1_115)"/>
<path style="mix-blend-mode:multiply" d="M62.9006 17.5507C62.8657 17.9487 62.4704 18.248 62.0191 18.2171C61.5678 18.1863 61.2285 17.8376 61.2635 17.4396C61.2984 17.0416 61.6937 16.7423 62.145 16.7732C62.5963 16.804 62.9356 17.1527 62.9006 17.5507Z" fill="url(#paint30_linear_1_115)"/>
<path d="M59.413 18.5781C59.413 18.5781 60.5324 16.3999 62.3585 16.1253C63.8628 15.897 64.9717 17.0879 64.9717 17.0879C64.9717 17.0879 63.7858 16.5511 62.2816 16.8195C60.7773 17.0879 59.4165 18.5812 59.4165 18.5812L59.413 18.5781Z" fill="#E56D5C"/>
<path d="M59.6333 18.1986L60.0146 18.6274C60.0146 18.6274 59.4654 18.5843 59.4164 18.5688C59.3674 18.5534 59.6333 18.1986 59.6333 18.1986Z" fill="#DE4E6B"/>
<path d="M60.7352 18.6614C60.7352 18.6614 62.5473 18.8033 63.5828 18.4886C64.7022 18.1461 64.8772 17.3471 64.8772 17.3471C64.8772 17.3471 64.5973 18.1523 63.4184 18.4392C62.3864 18.6922 60.7352 18.6583 60.7352 18.6583V18.6614Z" fill="#DE4E6B"/>
<path d="M63.2994 17.8345C63.1805 17.8962 63.6493 17.9981 64.0271 17.9363C64.3664 17.8808 64.5588 17.7296 64.5378 17.6926C64.5133 17.6556 63.7717 17.5877 63.2994 17.8314V17.8345Z" fill="white"/>
<path d="M63.0126 17.8685C62.8866 17.8037 62.7187 17.8376 62.6977 17.8993C62.6767 17.961 62.8272 18.069 62.9076 18.0567C62.9916 18.0443 63.0825 17.9024 63.0126 17.8685Z" fill="white"/>
<g style="mix-blend-mode:multiply" opacity="0.6">
<path d="M59.4933 18.4608C59.4933 18.4608 61.8826 16.4492 64.8736 17.3501C64.8736 17.3501 64.0446 16.5757 62.2325 16.6961C60.4169 16.8164 59.4933 18.4608 59.4933 18.4608Z" fill="#B23594"/>
</g>
<path d="M59.413 18.5781C59.413 18.5781 60.5639 17.1342 62.2641 16.9953C63.9642 16.8534 64.8773 17.3501 64.8773 17.3501L65.0312 17.1218C65.0312 17.1218 63.5374 16.477 62.0507 16.8009C60.2666 17.1928 59.413 18.5781 59.413 18.5781Z" fill="#290B39"/>
<path d="M59.4132 18.5781C59.4132 18.5781 60.2073 16.2333 61.3967 15.5113C61.3967 15.5113 60.0324 17.2545 59.4132 18.5781Z" fill="#DE4E6B"/>
<path d="M53.0286 18.4794C53.0426 18.6984 50.9086 18.7138 49.6003 18.5688C48.2919 18.4238 47.6867 17.5754 47.6518 17.3471C47.6203 17.1188 47.9736 16.4739 49.7822 16.6189C51.5908 16.7639 52.9901 17.9765 53.0251 18.4763L53.0286 18.4794Z" fill="url(#paint31_linear_1_115)"/>
<path d="M49.107 17.5846C49.163 18.2387 49.8102 18.7262 50.5518 18.6768C51.2934 18.6275 51.8461 18.0567 51.7902 17.4026C51.7342 16.7485 51.087 16.261 50.3454 16.3104C49.6038 16.3598 49.051 16.9305 49.107 17.5846Z" fill="url(#paint32_linear_1_115)"/>
<path d="M49.1875 17.5784C49.24 18.1924 49.8487 18.6552 50.5483 18.6058C51.2445 18.5595 51.7692 18.0227 51.7132 17.4056C51.6573 16.7886 51.0521 16.3289 50.3524 16.3782C49.6563 16.4245 49.1315 16.9614 49.1875 17.5784Z" fill="url(#paint33_linear_1_115)"/>
<path style="mix-blend-mode:multiply" d="M49.6283 17.5507C49.6633 17.9487 50.0586 18.2479 50.5098 18.2171C50.9611 18.1862 51.3004 17.8376 51.2655 17.4396C51.2305 17.0416 50.8352 16.7423 50.3839 16.7732C49.9326 16.804 49.5933 17.1527 49.6283 17.5507Z" fill="url(#paint34_linear_1_115)"/>
<path d="M53.1195 18.5781C53.1195 18.5781 52.0001 16.3999 50.174 16.1253C48.6697 15.897 47.5608 17.0879 47.5608 17.0879C47.5608 17.0879 48.7467 16.551 50.2509 16.8195C51.7552 17.0879 53.116 18.5812 53.116 18.5812L53.1195 18.5781Z" fill="#E56D5C"/>
<path d="M52.8991 18.1986L52.5178 18.6274C52.5178 18.6274 53.067 18.5843 53.116 18.5688C53.165 18.5534 52.8991 18.1986 52.8991 18.1986Z" fill="#DE4E6B"/>
<path d="M51.7937 18.6614C51.7937 18.6614 49.9816 18.8033 48.9461 18.4886C47.8267 18.1461 47.6518 17.3471 47.6518 17.3471C47.6518 17.3471 47.9316 18.1523 49.1105 18.4393C50.1425 18.6922 51.7937 18.6583 51.7937 18.6583V18.6614Z" fill="#DE4E6B"/>
<path d="M49.2329 17.8345C49.3519 17.8962 48.8831 17.9981 48.5053 17.9363C48.166 17.8808 47.9736 17.7296 47.9946 17.6926C48.0191 17.6556 48.7607 17.5877 49.2329 17.8314V17.8345Z" fill="white"/>
<path d="M49.5198 17.8685C49.6458 17.8037 49.8137 17.8376 49.8347 17.8993C49.8557 17.961 49.7052 18.069 49.6248 18.0567C49.5408 18.0443 49.4499 17.9024 49.5198 17.8685Z" fill="white"/>
<g style="mix-blend-mode:multiply" opacity="0.6">
<path d="M53.0356 18.4609C53.0356 18.4609 50.6463 16.4492 47.6553 17.3502C47.6553 17.3502 48.4844 16.5757 50.2964 16.6961C52.112 16.8164 53.0356 18.4609 53.0356 18.4609Z" fill="#B23594"/>
</g>
<path d="M53.1195 18.5781C53.1195 18.5781 51.9686 17.1342 50.2684 16.9953C48.5683 16.8534 47.6552 17.3501 47.6552 17.3501L47.5013 17.1218C47.5013 17.1218 48.9951 16.477 50.4818 16.8009C52.2659 17.1928 53.1195 18.5781 53.1195 18.5781Z" fill="#290B39"/>
<path d="M53.1195 18.5781C53.1195 18.5781 52.3254 16.2333 51.136 15.5113C51.136 15.5113 52.5003 17.2545 53.1195 18.5781Z" fill="#DE4E6B"/>
<path d="M53.2035 22.953C53.2035 22.953 52.4269 20.457 56.0931 20.457C59.7592 20.457 59.1435 22.9036 59.1435 22.9036L58.9791 22.953C58.9791 22.953 57.9786 23.5053 56.0896 23.5053C54.2005 23.5053 53.2 22.953 53.2 22.953H53.2035Z" fill="url(#paint35_linear_1_115)"/>
<g style="mix-blend-mode:multiply" opacity="0.6">
<path d="M56.0546 23.1319C54.1376 23.1319 53.2036 22.953 53.2036 22.953C54.1831 22.9283 54.9737 23.4991 56.0931 23.5053C57.2125 23.4991 57.9996 22.9283 58.9827 22.953C58.9827 22.953 57.8562 23.1319 56.0581 23.1319H56.0546Z" fill="#B23594"/>
</g>
<path style="mix-blend-mode:multiply" opacity="0.5" d="M57.5833 23.2184C57.5833 23.2184 58.0766 22.7556 58.9791 22.953L57.5833 23.2184Z" fill="url(#paint36_linear_1_115)"/>
<path style="mix-blend-mode:multiply" opacity="0.5" d="M53.2036 22.953C53.2036 22.953 53.7808 22.7031 54.5504 23.206L53.2036 22.953Z" fill="url(#paint37_linear_1_115)"/>
<g style="mix-blend-mode:multiply" opacity="0.6">
<path d="M53.5708 21.1944C53.5708 21.1944 52.7313 21.8361 53.1336 22.9036C53.1336 22.9036 53.1685 22.0398 53.5708 21.1944Z" fill="#B23594"/>
</g>
<g style="mix-blend-mode:multiply" opacity="0.6">
<path d="M58.6748 21.2376C58.6748 21.2376 59.5458 21.8361 59.14 22.9037C59.14 22.9037 59.0736 22.083 58.6748 21.2376Z" fill="#B23594"/>
</g>
<g style="mix-blend-mode:multiply" opacity="0.6">
<path d="M53.2036 22.953C53.2036 22.953 54.7778 24.1532 56.0931 24.1532C57.4084 24.1532 59.1436 22.9036 59.1436 22.9036C58.8462 21.3271 57.7723 23.132 56.0581 23.132C54.8932 23.132 53.4869 21.7467 53.2071 22.953H53.2036Z" fill="#B23594"/>
</g>
<path d="M57.335 22.3359C57.3245 22.194 57.5239 22.0336 57.6813 22.0459C57.8387 22.0583 57.7583 22.3699 57.6813 22.4285C57.6043 22.4871 57.335 22.3329 57.335 22.3329V22.3359Z" fill="#FCCBB9"/>
<path style="mix-blend-mode:multiply" opacity="0.6" d="M53.5709 21.1944C53.5709 21.1944 53.8402 21.5646 54.1236 22.7556C54.1236 22.7556 54.4629 21.9596 53.7668 21.0587L53.5709 21.1944Z" fill="url(#paint38_linear_1_115)"/>
<path style="mix-blend-mode:multiply" opacity="0.6" d="M58.6258 21.2283C58.6258 21.2283 58.4334 21.5646 58.1535 22.7556C58.1535 22.7556 57.7372 21.9287 58.4334 21.0278L58.6258 21.2283Z" fill="url(#paint39_linear_1_115)"/>
<path style="mix-blend-mode:multiply" d="M51.1046 26.2635C51.1046 26.2635 53.193 29.5185 56.0336 29.5185C58.6013 29.5185 60.7807 26.3283 60.7807 26.3283C60.7807 26.3283 58.7727 28.1209 56.8802 28.2937C54.9876 28.4664 51.1046 26.2635 51.1046 26.2635Z" fill="url(#paint40_linear_1_115)"/>
<path d="M50.1461 24.977C50.1461 24.977 52.1715 28.0006 53.5813 28.4171C54.9911 28.8305 57.5763 28.5898 58.4054 28.4171C59.238 28.2443 61.7287 25.2423 61.7287 25.2423C61.7287 25.2423 59.0176 27.439 55.9391 27.439C52.8607 27.439 50.1496 24.9801 50.1496 24.9801L50.1461 24.977Z" fill="#EF7172"/>
<path d="M50.1461 24.977C50.1461 24.977 51.8882 25.8717 55.7502 25.8717C59.6123 25.8717 62.0926 24.977 62.0926 24.977C62.0926 24.977 58.7832 27.547 55.7502 27.547C53.1965 27.547 50.1461 24.977 50.1461 24.977Z" fill="#D35057"/>
<path d="M61.5958 24.7055C61.5958 24.7055 62.201 25.1467 62.4634 25.4922C62.4634 25.4922 62.5508 24.8782 62.285 24.5666C62.0191 24.255 61.5923 24.7055 61.5923 24.7055H61.5958Z" fill="#DE6B7D"/>
<path d="M50.5868 24.7055C50.5868 24.7055 49.9816 25.1467 49.7192 25.4922C49.7192 25.4922 49.6318 24.8782 49.8977 24.5666C50.1635 24.255 50.5903 24.7055 50.5903 24.7055H50.5868Z" fill="#DE6B7D"/>
<path d="M51.241 25.5817C51.241 25.5817 53.4239 27.365 55.7467 27.4359C58.6258 27.5223 60.9031 25.4922 60.9031 25.4922C60.9031 25.4922 57.8912 26.137 55.6733 26.137C53.4554 26.137 51.241 25.5848 51.241 25.5848V25.5817Z" fill="white"/>
<path d="M59.8852 25.6866L59.8257 26.2851L61.197 25.3842L59.8852 25.6866Z" fill="#4F1C3E"/>
<path d="M52.182 25.7791L52.301 26.3283L50.8387 25.4182L52.182 25.7791Z" fill="#4F1C3E"/>
<g style="mix-blend-mode:soft-light">
<path d="M57.0516 27.7877L57.4014 28.5466C57.4014 28.5466 58.1501 28.5065 58.5978 28.3399C59.0561 28.1733 60.1161 27.1181 60.4764 26.6554L60.0951 26.5566C60.0951 26.5566 58.8462 27.4082 57.0516 27.7877Z" fill="#FCCBB9"/>
</g>
<g style="mix-blend-mode:multiply" opacity="0.6">
<path d="M52.1995 25.8748C52.1995 25.8748 53.7947 26.2851 55.7468 26.2851C57.6988 26.2851 59.8747 25.7637 59.8747 25.7637L59.8817 25.6866C59.8817 25.6866 57.5239 26.137 55.6733 26.137C53.8227 26.137 52.1786 25.7822 52.1786 25.7822L52.1995 25.8748Z" fill="#8D307F"/>
</g>
<defs>
<linearGradient id="paint0_linear_1_115" x1="55.3304" y1="44.6056" x2="55.3304" y2="29.1514" gradientUnits="userSpaceOnUse">
<stop stop-color="#F9B19E"/>
<stop offset="0.21" stop-color="#F69B8F"/>
<stop offset="0.47" stop-color="#F48781"/>
<stop offset="0.74" stop-color="#F37B79"/>
<stop offset="1" stop-color="#F37777"/>
</linearGradient>
<linearGradient id="paint1_linear_1_115" x1="59.8012" y1="38.6541" x2="59.8012" y2="30.7835" gradientUnits="userSpaceOnUse">
<stop stop-color="#FEEADB"/>
<stop offset="0.99" stop-color="#B17EB7"/>
</linearGradient>
<linearGradient id="paint2_linear_1_115" x1="68.8861" y1="24.1532" x2="68.8861" y2="16.0975" gradientUnits="userSpaceOnUse">
<stop stop-color="#F4837E"/>
<stop offset="0.01" stop-color="#F3827D"/>
<stop offset="0.34" stop-color="#F27369"/>
<stop offset="0.67" stop-color="#F26A5D"/>
<stop offset="1" stop-color="#F26859"/>
</linearGradient>
<linearGradient id="paint3_linear_1_115" x1="69.0646" y1="21.7004" x2="69.0646" y2="17.5229" gradientUnits="userSpaceOnUse">
<stop stop-color="#FEEADB"/>
<stop offset="0.99" stop-color="#B17EB7"/>
</linearGradient>
<linearGradient id="paint4_linear_1_115" x1="68.1236" y1="21.5955" x2="68.1236" y2="18.3559" gradientUnits="userSpaceOnUse">
<stop stop-color="#FEEADB"/>
<stop offset="0.99" stop-color="#B17EB7"/>
</linearGradient>
<linearGradient id="paint5_linear_1_115" x1="42.2085" y1="24.1532" x2="42.2085" y2="16.0975" gradientUnits="userSpaceOnUse">
<stop stop-color="#F4837E"/>
<stop offset="0.01" stop-color="#F3827D"/>
<stop offset="0.34" stop-color="#F27369"/>
<stop offset="0.67" stop-color="#F26A5D"/>
<stop offset="1" stop-color="#F26859"/>
</linearGradient>
<linearGradient id="paint6_linear_1_115" x1="42.0266" y1="21.7004" x2="42.0266" y2="17.5229" gradientUnits="userSpaceOnUse">
<stop stop-color="#FEEADB"/>
<stop offset="0.99" stop-color="#B17EB7"/>
</linearGradient>
<linearGradient id="paint7_linear_1_115" x1="42.9712" y1="21.5955" x2="42.9712" y2="18.3559" gradientUnits="userSpaceOnUse">
<stop stop-color="#FEEADB"/>
<stop offset="0.99" stop-color="#B17EB7"/>
</linearGradient>
<linearGradient id="paint8_linear_1_115" x1="55.6278" y1="33.227" x2="55.6278" y2="3.69466" gradientUnits="userSpaceOnUse">
<stop stop-color="#F3797E"/>
<stop offset="0.11" stop-color="#F37C7A"/>
<stop offset="0.55" stop-color="#F5886E"/>
<stop offset="1" stop-color="#F68D6A"/>
</linearGradient>
<linearGradient id="paint9_linear_1_115" x1="53.116" y1="2.9141" x2="62.0051" y2="2.9141" gradientUnits="userSpaceOnUse">
<stop stop-color="#33122B"/>
<stop offset="1" stop-color="#441B3E"/>
</linearGradient>
<linearGradient id="paint10_linear_1_115" x1="55.8203" y1="17.6772" x2="55.8203" y2="0.00158469" gradientUnits="userSpaceOnUse">
<stop stop-color="#360F3A"/>
<stop offset="1" stop-color="#4C132E"/>
</linearGradient>
<linearGradient id="paint11_linear_1_115" x1="55.4704" y1="4.16057" x2="64.153" y2="4.16057" gradientUnits="userSpaceOnUse">
<stop stop-color="#33122B"/>
<stop offset="1" stop-color="#441B3E"/>
</linearGradient>
<linearGradient id="paint12_linear_1_115" x1="53.8717" y1="3.29975" x2="59.0351" y2="3.29975" gradientUnits="userSpaceOnUse">
<stop stop-color="#33122B"/>
<stop offset="1" stop-color="#441B3E"/>
</linearGradient>
<linearGradient id="paint13_linear_1_115" x1="52.294" y1="3.34294" x2="55.4704" y2="3.34294" gradientUnits="userSpaceOnUse">
<stop stop-color="#33122B"/>
<stop offset="1" stop-color="#441B3E"/>
</linearGradient>
<linearGradient id="paint14_linear_1_115" x1="42.8557" y1="8.35653" x2="44.6993" y2="8.35653" gradientUnits="userSpaceOnUse">
<stop stop-color="#33122B"/>
<stop offset="1" stop-color="#441B3E"/>
</linearGradient>
<linearGradient id="paint15_linear_1_115" x1="45.8642" y1="5.69704" x2="48.1975" y2="5.69704" gradientUnits="userSpaceOnUse">
<stop stop-color="#33122B"/>
<stop offset="1" stop-color="#441B3E"/>
</linearGradient>
<linearGradient id="paint16_linear_1_115" x1="58.7027" y1="5.09848" x2="66.1785" y2="5.09848" gradientUnits="userSpaceOnUse">
<stop stop-color="#33122B"/>
<stop offset="1" stop-color="#441B3E"/>
</linearGradient>
<linearGradient id="paint17_linear_1_115" x1="64.7967" y1="7.69936" x2="68.204" y2="7.69936" gradientUnits="userSpaceOnUse">
<stop stop-color="#33122B"/>
<stop offset="1" stop-color="#441B3E"/>
</linearGradient>
<linearGradient id="paint18_linear_1_115" x1="44.3669" y1="6.51155" x2="45.8851" y2="6.51155" gradientUnits="userSpaceOnUse">
<stop stop-color="#33122B"/>
<stop offset="1" stop-color="#441B3E"/>
</linearGradient>
<linearGradient id="paint19_linear_1_115" x1="54.0012" y1="127.976" x2="82.5923" y2="127.976" gradientUnits="userSpaceOnUse">
<stop stop-color="#E9A792"/>
<stop offset="0.08" stop-color="#ECA78E"/>
<stop offset="0.51" stop-color="#F9AC81"/>
<stop offset="0.59" stop-color="#F8A57D"/>
<stop offset="0.79" stop-color="#F69977"/>
<stop offset="1" stop-color="#F69575"/>
</linearGradient>
<linearGradient id="paint20_linear_1_115" x1="-0.00111269" y1="91.4462" x2="7.11082" y2="91.4462" gradientUnits="userSpaceOnUse">
<stop stop-color="#E9A792"/>
<stop offset="0.08" stop-color="#ECA78E"/>
<stop offset="0.51" stop-color="#F9AC81"/>
<stop offset="0.59" stop-color="#F8A57D"/>
<stop offset="0.79" stop-color="#F69977"/>
<stop offset="1" stop-color="#F69575"/>
</linearGradient>
<linearGradient id="paint21_linear_1_115" x1="1.8774" y1="94.948" x2="8.98933" y2="94.948" gradientUnits="userSpaceOnUse">
<stop stop-color="#E9A792"/>
<stop offset="0.08" stop-color="#ECA78E"/>
<stop offset="0.51" stop-color="#F9AC81"/>
<stop offset="0.59" stop-color="#F8A57D"/>
<stop offset="0.79" stop-color="#F69977"/>
<stop offset="1" stop-color="#F69575"/>
</linearGradient>
<linearGradient id="paint22_linear_1_115" x1="2.752" y1="98.1413" x2="9.86742" y2="98.1413" gradientUnits="userSpaceOnUse">
<stop stop-color="#E9A792"/>
<stop offset="0.08" stop-color="#ECA78E"/>
<stop offset="0.51" stop-color="#F9AC81"/>
<stop offset="0.59" stop-color="#F8A57D"/>
<stop offset="0.79" stop-color="#F69977"/>
<stop offset="1" stop-color="#F69575"/>
</linearGradient>
<linearGradient id="paint23_linear_1_115" x1="4.55006" y1="101.541" x2="11.662" y2="101.541" gradientUnits="userSpaceOnUse">
<stop stop-color="#E9A792"/>
<stop offset="0.08" stop-color="#ECA78E"/>
<stop offset="0.51" stop-color="#F9AC81"/>
<stop offset="0.59" stop-color="#F8A57D"/>
<stop offset="0.79" stop-color="#F69977"/>
<stop offset="1" stop-color="#F69575"/>
</linearGradient>
<linearGradient id="paint24_linear_1_115" x1="-0.00119628" y1="95.9661" x2="6.76441" y2="95.9661" gradientUnits="userSpaceOnUse">
<stop stop-color="#E9A792"/>
<stop offset="0.08" stop-color="#ECA78E"/>
<stop offset="0.51" stop-color="#F9AC81"/>
<stop offset="0.59" stop-color="#F8A57D"/>
<stop offset="0.79" stop-color="#F69977"/>
<stop offset="1" stop-color="#F69575"/>
</linearGradient>
<linearGradient id="paint25_linear_1_115" x1="58.4859" y1="14.2033" x2="66.7977" y2="14.2033" gradientUnits="userSpaceOnUse">
<stop stop-color="#360F3A"/>
<stop offset="1" stop-color="#4C132E"/>
</linearGradient>
<linearGradient id="paint26_linear_1_115" x1="53.9033" y1="14.2033" x2="45.5914" y2="14.2033" gradientUnits="userSpaceOnUse">
<stop stop-color="#360F3A"/>
<stop offset="1" stop-color="#4C132E"/>
</linearGradient>
<linearGradient id="paint27_linear_1_115" x1="62.2393" y1="18.6336" x2="62.1324" y2="16.658" gradientUnits="userSpaceOnUse">
<stop stop-color="#EDE1EF"/>
<stop offset="1" stop-color="#C0C7E6"/>
</linearGradient>
<linearGradient id="paint28_linear_1_115" x1="61.9775" y1="18.6803" x2="62.1381" y2="16.3085" gradientUnits="userSpaceOnUse">
<stop stop-color="#4C132E"/>
<stop offset="1" stop-color="#360F3A"/>
</linearGradient>
<linearGradient id="paint29_linear_1_115" x1="61.9837" y1="18.6095" x2="62.1347" y2="16.3794" gradientUnits="userSpaceOnUse">
<stop stop-color="#4C132E"/>
<stop offset="1" stop-color="#360F3A"/>
</linearGradient>
<linearGradient id="paint30_linear_1_115" x1="62.0177" y1="18.2188" x2="62.1157" y2="16.7711" gradientUnits="userSpaceOnUse">
<stop stop-color="#C9A8CF"/>
<stop offset="0.99" stop-color="#8361AA"/>
</linearGradient>
<linearGradient id="paint31_linear_1_115" x1="50.2947" y1="18.6291" x2="50.4016" y2="16.6535" gradientUnits="userSpaceOnUse">
<stop stop-color="#EDE1EF"/>
<stop offset="1" stop-color="#C0C7E6"/>
</linearGradient>
<linearGradient id="paint32_linear_1_115" x1="50.5534" y1="18.6764" x2="50.393" y2="16.3077" gradientUnits="userSpaceOnUse">
<stop stop-color="#4C132E"/>
<stop offset="1" stop-color="#360F3A"/>
</linearGradient>
<linearGradient id="paint33_linear_1_115" x1="50.5473" y1="18.6056" x2="50.3963" y2="16.3755" gradientUnits="userSpaceOnUse">
<stop stop-color="#4C132E"/>
<stop offset="1" stop-color="#360F3A"/>
</linearGradient>
<linearGradient id="paint34_linear_1_115" x1="50.5132" y1="18.215" x2="50.4152" y2="16.7672" gradientUnits="userSpaceOnUse">
<stop stop-color="#C9A8CF"/>
<stop offset="0.99" stop-color="#8361AA"/>
</linearGradient>
<linearGradient id="paint35_linear_1_115" x1="56.156" y1="23.5053" x2="56.156" y2="20.4539" gradientUnits="userSpaceOnUse">
<stop stop-color="#F3797E"/>
<stop offset="0.11" stop-color="#F37C7A"/>
<stop offset="0.55" stop-color="#F5886E"/>
<stop offset="1" stop-color="#F68D6A"/>
</linearGradient>
<linearGradient id="paint36_linear_1_115" x1="57.5833" y1="23.061" x2="58.9791" y2="23.061" gradientUnits="userSpaceOnUse">
<stop offset="0.02" stop-color="#7A55A3"/>
<stop offset="0.99" stop-color="#BD89BD"/>
</linearGradient>
<linearGradient id="paint37_linear_1_115" x1="53.2036" y1="23.0456" x2="54.5504" y2="23.0456" gradientUnits="userSpaceOnUse">
<stop offset="0.02" stop-color="#7A55A3"/>
<stop offset="0.99" stop-color="#BD89BD"/>
</linearGradient>
<linearGradient id="paint38_linear_1_115" x1="53.8892" y1="22.7556" x2="53.8892" y2="21.0587" gradientUnits="userSpaceOnUse">
<stop stop-color="#FEEADB"/>
<stop offset="0.99" stop-color="#B17EB7"/>
</linearGradient>
<linearGradient id="paint39_linear_1_115" x1="58.3284" y1="22.7556" x2="58.3284" y2="21.0278" gradientUnits="userSpaceOnUse">
<stop stop-color="#FEEADB"/>
<stop offset="0.99" stop-color="#B17EB7"/>
</linearGradient>
<linearGradient id="paint40_linear_1_115" x1="55.9426" y1="29.5185" x2="55.9426" y2="26.2635" gradientUnits="userSpaceOnUse">
<stop stop-color="#F8C0D8"/>
<stop offset="0.99" stop-color="#B17EB7"/>
</linearGradient>
</defs>
</svg>
